<svg width="24" height="24" viewBox="0 0 24 24" fill="none" xmlns="http://www.w3.org/2000/svg">
    <path d="M10.7732 1.62777L8.27504 1.0895C6.23714 0.650159 4.21256 1.87092 3.7523 3.81619L3.18319 6.2207C4.82277 3.73551 7.57509 1.98808 10.7732 1.62777ZM1.65766 12.671L1.09376 15.0556C0.6335 17.0009 1.9124 18.9335 3.9503 19.3728L6.4693 19.916C3.86577 18.3504 2.03513 15.7238 1.65766 12.671ZM20.0497 3.62719L17.5307 3.08395C20.1342 4.64901 21.9649 7.27623 22.3423 10.3284L22.9062 7.94381C23.3665 5.99965 22.0876 4.06654 20.0497 3.62719ZM13.2268 21.3722L15.725 21.9105C17.7629 22.3498 19.7874 21.1291 20.2477 19.1838L20.8168 16.7793C19.1772 19.2645 16.4249 21.0119 13.2268 21.3722Z" fill="white"/>
    <path d="M12.5 3C7.80534 3 4 6.80534 4 11.5C4 16.1947 7.80534 20 12.5 20C17.1947 20 21 16.1947 21 11.5C21 6.80534 17.1947 3 12.5 3ZM10.375 5.65625C11.5485 5.65625 12.5 6.60772 12.5 7.78125C12.5 8.95478 11.5485 9.90625 10.375 9.90625C9.20147 9.90625 8.25 8.95478 8.25 7.78125C8.25 6.60772 9.20147 5.65625 10.375 5.65625ZM8.78125 15.75C7.60772 15.75 6.65625 14.7985 6.65625 13.625C6.65625 12.4515 7.60772 11.5 8.78125 11.5C9.95478 11.5 10.9062 12.4515 10.9062 13.625C10.9062 14.7985 9.95478 15.75 8.78125 15.75ZM11.4375 11.5C11.4375 10.913 11.913 10.4375 12.5 10.4375C13.087 10.4375 13.5625 10.913 13.5625 11.5C13.5625 12.087 13.087 12.5625 12.5 12.5625C11.913 12.5625 11.4375 12.087 11.4375 11.5ZM14.625 17.3438C13.4515 17.3438 12.5 16.3923 12.5 15.2188C12.5 14.0452 13.4515 13.0938 14.625 13.0938C15.7985 13.0938 16.75 14.0452 16.75 15.2188C16.75 16.3923 15.7985 17.3438 14.625 17.3438ZM16.2188 11.5C15.0452 11.5 14.0938 10.5485 14.0938 9.375C14.0938 8.20147 15.0452 7.25 16.2188 7.25C17.3923 7.25 18.3438 8.20147 18.3438 9.375C18.3438 10.5485 17.3923 11.5 16.2188 11.5Z" fill="white"/>
</svg>
