<svg width="24" height="24" viewBox="0 0 24 24" fill="none" xmlns="http://www.w3.org/2000/svg">
<path d="M6.32425 2H19.5434C19.792 2.03906 19.995 2.27812 19.982 2.54688C19.9831 7.49453 19.9824 12.4422 19.9824 17.3898C19.9957 17.6262 19.8465 17.8629 19.6276 17.9262C19.4231 17.9773 19.2116 17.9645 19.0034 17.9656C14.8227 17.9664 10.6416 17.9645 6.46045 17.9664C6.12052 17.9629 5.77875 18.0797 5.51824 18.3117C5.14789 18.6316 4.9475 19.1598 5.02134 19.6594C5.07144 20.073 5.30078 20.4559 5.6292 20.6875C5.88265 20.8723 6.19326 20.9512 6.49904 20.9453C10.6597 20.9453 14.8204 20.9453 18.9811 20.9453C18.9845 20.4496 18.9771 19.9539 18.9845 19.4582C18.9912 19.1719 19.2558 18.9324 19.5259 18.9656C19.7805 18.982 19.9902 19.232 19.9816 19.4996C19.9846 20.0984 19.9809 20.6973 19.9831 21.2965C19.9846 21.4551 19.9887 21.6285 19.8974 21.7645C19.8206 21.8945 19.6844 21.9672 19.5463 22H6.32054C5.97468 21.9715 5.62957 21.8887 5.32082 21.718C4.67586 21.3762 4.19269 20.7152 4.05093 19.9691C3.98822 19.673 4.0038 19.3687 4.00343 19.0684C3.9975 14.2777 4.00009 9.4875 4.00492 4.69727C3.96039 3.94023 4.25578 3.17148 4.79275 2.66523C5.20763 2.26094 5.7613 2.02852 6.32425 2ZM7.07089 4.05625C6.92468 4.11992 6.8089 4.2582 6.77291 4.42109C6.75027 4.53672 6.7588 4.65586 6.75769 4.77344C6.75843 8.26406 6.75621 11.7551 6.7588 15.2453C6.7499 15.5352 7.00224 15.7953 7.27759 15.7758C7.54107 15.7727 7.76744 15.5184 7.75853 15.2426C7.76113 11.7145 7.75816 8.18594 7.76002 4.65781C7.76261 4.52305 7.75556 4.37969 7.68134 4.26445C7.55963 4.05195 7.28761 3.95938 7.07089 4.05625Z" fill="white"/>
</svg>
