<svg width="20" height="20" viewBox="0 0 20 20" fill="none" xmlns="http://www.w3.org/2000/svg">
<path d="M13.9583 2.96675V1.66675C13.9583 1.32508 13.675 1.04175 13.3333 1.04175C12.9917 1.04175 12.7083 1.32508 12.7083 1.66675V2.91675H7.29165V1.66675C7.29165 1.32508 7.00832 1.04175 6.66665 1.04175C6.32499 1.04175 6.04165 1.32508 6.04165 1.66675V2.96675C3.79165 3.17508 2.69999 4.51675 2.53332 6.50841C2.51665 6.75008 2.71665 6.95008 2.94999 6.95008H17.05C17.2917 6.95008 17.4917 6.74175 17.4667 6.50841C17.3 4.51675 16.2083 3.17508 13.9583 2.96675Z" fill="#434C5D"/>
<path d="M15.8333 12.5C13.9917 12.5 12.5 13.9917 12.5 15.8333C12.5 16.4583 12.675 17.05 12.9833 17.55C13.5583 18.5167 14.6167 19.1667 15.8333 19.1667C17.05 19.1667 18.1083 18.5167 18.6833 17.55C18.9917 17.05 19.1667 16.4583 19.1667 15.8333C19.1667 13.9917 17.675 12.5 15.8333 12.5ZM17.5583 15.475L15.7833 17.1167C15.6667 17.225 15.5083 17.2833 15.3583 17.2833C15.2 17.2833 15.0417 17.225 14.9167 17.1L14.0917 16.275C13.85 16.0333 13.85 15.6333 14.0917 15.3917C14.3333 15.15 14.7333 15.15 14.975 15.3917L15.375 15.7917L16.7083 14.5583C16.9583 14.325 17.3583 14.3417 17.5917 14.5917C17.825 14.8417 17.8083 15.2333 17.5583 15.475Z" fill="#434C5D"/>
<path d="M16.6667 8.19995H3.33333C2.875 8.19995 2.5 8.57495 2.5 9.03328V14.1666C2.5 16.6666 3.75 18.3333 6.66667 18.3333H10.775C11.35 18.3333 11.75 17.775 11.5667 17.2333C11.4 16.75 11.2583 16.2166 11.2583 15.8333C11.2583 13.3083 13.3167 11.25 15.8417 11.25C16.0833 11.25 16.325 11.2666 16.5583 11.3083C17.0583 11.3833 17.5083 10.9916 17.5083 10.4916V9.04162C17.5 8.57495 17.125 8.19995 16.6667 8.19995ZM7.675 15.175C7.51667 15.325 7.3 15.4166 7.08333 15.4166C6.86667 15.4166 6.65 15.325 6.49167 15.175C6.34167 15.0166 6.25 14.8 6.25 14.5833C6.25 14.3666 6.34167 14.15 6.49167 13.9916C6.575 13.9166 6.65833 13.8583 6.76667 13.8166C7.075 13.6833 7.44167 13.7583 7.675 13.9916C7.825 14.15 7.91667 14.3666 7.91667 14.5833C7.91667 14.8 7.825 15.0166 7.675 15.175ZM7.675 12.2583C7.63333 12.2916 7.59167 12.325 7.55 12.3583C7.5 12.3916 7.45 12.4166 7.4 12.4333C7.35 12.4583 7.3 12.475 7.25 12.4833C7.19167 12.4916 7.13333 12.5 7.08333 12.5C6.86667 12.5 6.65 12.4083 6.49167 12.2583C6.34167 12.1 6.25 11.8833 6.25 11.6666C6.25 11.45 6.34167 11.2333 6.49167 11.075C6.68333 10.8833 6.975 10.7916 7.25 10.85C7.3 10.8583 7.35 10.875 7.4 10.9C7.45 10.9166 7.5 10.9416 7.55 10.975C7.59167 11.0083 7.63333 11.0416 7.675 11.075C7.825 11.2333 7.91667 11.45 7.91667 11.6666C7.91667 11.8833 7.825 12.1 7.675 12.2583ZM10.5917 12.2583C10.4333 12.4083 10.2167 12.5 10 12.5C9.78333 12.5 9.56667 12.4083 9.40833 12.2583C9.25833 12.1 9.16667 11.8833 9.16667 11.6666C9.16667 11.45 9.25833 11.2333 9.40833 11.075C9.725 10.7666 10.2833 10.7666 10.5917 11.075C10.7417 11.2333 10.8333 11.45 10.8333 11.6666C10.8333 11.8833 10.7417 12.1 10.5917 12.2583Z" fill="#434C5D"/>
</svg>
