<svg width="80" height="80" viewBox="0 0 80 80" fill="none" xmlns="http://www.w3.org/2000/svg">
<path d="M5.39051 2.6C5.72488 2.52188 6.0702 2.50469 6.41238 2.49844C28.8061 2.50156 51.1983 2.5 73.5921 2.49844C74.5233 2.47656 75.4686 2.77813 76.1749 3.39375C77.0483 4.12344 77.5343 5.2625 77.4999 6.39688C77.4983 28.4328 77.4999 50.4703 77.4999 72.5062C77.4936 73.0828 77.5264 73.6609 77.4624 74.2359C77.2983 75.6172 76.2874 76.8578 74.9655 77.2937C74.278 77.5437 73.5343 77.4984 72.8155 77.5C50.6233 77.4969 28.4311 77.5047 6.23895 77.4969C4.24207 77.5406 2.45301 75.75 2.50145 73.7516C2.49832 51.25 2.49832 28.7469 2.50301 6.24531C2.47332 4.55156 3.74207 2.96563 5.39051 2.6ZM4.99988 6.40313C4.99988 28.5391 5.00145 50.6766 4.99832 72.8125C5.02176 73.4219 4.8702 74.1562 5.36395 74.6266C5.83426 75.1281 6.57488 74.9797 7.18895 75.0016C29.3264 74.9984 51.4655 75.0016 73.6046 75C74.3858 75.0859 75.0889 74.3766 74.9999 73.5969C74.9999 52.3984 74.9999 31.1984 74.9999 10C57.4999 10 39.9999 10 22.4999 10C22.4999 9.16719 22.4999 8.33281 22.4999 7.5C39.9999 7.5 57.4983 7.5 74.9983 7.5C74.9905 6.97813 75.0389 6.45156 74.9546 5.93594C74.8171 5.33594 74.2014 4.94688 73.6014 5C51.203 5 28.803 5 6.40301 5C5.61863 4.90625 4.90613 5.61719 4.99988 6.40313Z" fill="white"/>
<path d="M7.5 7.5C8.33281 7.5 9.16719 7.5 10 7.5C10 8.33281 10 9.16719 10 10C9.16719 10 8.33281 10 7.5 10C7.5 9.16719 7.5 8.33281 7.5 7.5Z" fill="white"/>
<path d="M12.5 7.5C13.3328 7.5 14.1672 7.5 15 7.5C15 8.33281 15 9.16719 15 10C14.1672 10 13.3328 10 12.5 10C12.5 9.16719 12.5 8.33281 12.5 7.5Z" fill="white"/>
<path d="M17.4999 7.5C18.3327 7.5 19.1671 7.5 19.9999 7.5C19.9999 8.33281 19.9999 9.16719 19.9999 10C19.1671 10 18.3327 10 17.4999 10C17.4999 9.16719 17.4999 8.33281 17.4999 7.5Z" fill="white"/>
<path d="M26.2499 15C35.4171 15 44.5827 15 53.7499 15C53.7499 15.8328 53.7499 16.6672 53.7499 17.5C44.5827 17.5 35.4171 17.5 26.2499 17.5C26.2499 16.6672 26.2499 15.8328 26.2499 15Z" fill="white"/>
<path d="M10 20C13.75 20 17.5 20 21.25 20C21.25 20.8328 21.25 21.6672 21.25 22.5C17.5 22.5 13.75 22.5 10 22.5C10 21.6672 10 20.8328 10 20Z" fill="white"/>
<path d="M10.0077 26.2391C9.98275 25.5063 10.6952 24.9188 11.4077 25C30.4702 25 49.5328 25 68.5953 25C69.0453 24.9734 69.5171 25.15 69.7718 25.5344C70.0249 25.8719 69.9984 26.3125 70.0031 26.7109C69.989 29.0609 70.0124 31.4109 69.9921 33.7609C70.0078 34.4188 69.4218 35.0063 68.764 34.9922C67.0937 35.0125 65.4218 34.9938 63.7499 35C63.7499 34.1672 63.7499 33.3328 63.7499 32.5C64.9999 32.4984 66.2499 32.5016 67.4999 32.5C67.4999 30.8328 67.4999 29.1672 67.4999 27.5C49.1671 27.5 30.8327 27.5 12.4999 27.5C12.4999 29.1672 12.4999 30.8328 12.4999 32.5C24.5827 32.5 36.6671 32.5 48.7499 32.5C48.7499 33.3328 48.7499 34.1672 48.7499 35C36.5109 35.0016 24.2702 34.9969 12.0312 35.0016C11.5281 34.9844 10.9609 35.0844 10.5281 34.7672C10.1468 34.5109 9.97494 34.0438 9.99994 33.5984C10.0046 31.1453 9.99056 28.6922 10.0077 26.2391Z" fill="white"/>
<path d="M51.6171 31.3375C51.7812 30.4719 52.9187 30.0719 53.5968 30.6281C57.1843 33.2328 60.7593 35.8578 64.3437 38.4687C64.7515 38.7359 65.0531 39.1984 64.9937 39.7016C64.95 40.3016 64.4265 40.7984 63.8296 40.8359C62.6718 40.9688 61.5109 41.0813 60.3531 41.2109C61.3078 43.8313 62.2828 46.4453 63.2328 49.0672C63.4687 49.6359 63.2125 50.3547 62.6531 50.6234C62.1328 50.8734 61.5734 51.0297 61.0343 51.2328C63.189 51.2719 65.3437 51.2391 67.5 51.25C67.5 49.5828 67.5 47.9172 67.5 46.25C66.6656 46.2484 65.8328 46.25 65 46.25C65 45.4156 65 44.5828 65 43.75C66.2515 43.7562 67.5031 43.7375 68.7531 43.7563C69.414 43.7359 70.0062 44.3234 69.9921 44.9844C70.0062 47.4922 70.0046 50 69.9921 52.5094C70.014 53.2375 69.3109 53.825 68.6 53.75C49.5359 53.75 30.4718 53.75 11.4062 53.75C10.6953 53.8281 9.98433 53.2453 10.0078 52.5125C9.99527 50.0016 9.99371 47.4891 10.0078 44.9781C9.98902 44.25 10.6968 43.6703 11.4062 43.75C23.0203 43.75 34.6343 43.75 46.25 43.75C46.25 44.5828 46.25 45.4156 46.25 46.25C35 46.25 23.75 46.25 12.5 46.25C12.5 47.9172 12.5 49.5828 12.5 51.25C27.0156 51.25 41.5312 51.25 56.0468 51.25C55.1359 48.7656 54.225 46.2812 53.3109 43.7984C52.2859 44.4781 51.289 45.2 50.2515 45.8594C49.3937 46.3906 48.1937 45.5 48.45 44.5266C49.489 40.1266 50.5546 35.7312 51.6171 31.3375ZM53.6093 33.7328C52.9515 36.4594 52.2937 39.1844 51.6437 41.9125C52.2312 41.5312 52.7828 41.0937 53.3906 40.7469C54.0203 40.4031 54.8781 40.7641 55.1015 41.4375C56.1203 44.1688 57.1125 46.9109 58.1234 49.6438C58.9062 49.3594 59.6875 49.0719 60.4671 48.7844C59.4687 46.0359 58.4421 43.2969 57.45 40.5453C57.2015 39.9016 57.6109 39.1078 58.2828 38.9469C58.9781 38.8047 59.6937 38.7859 60.3968 38.6906C58.139 37.0312 55.8765 35.3781 53.6093 33.7328Z" fill="white"/>
<path d="M10 38.75C15.8328 38.75 21.6672 38.75 27.5 38.75C27.5 39.5828 27.5 40.4156 27.5 41.25C21.6672 41.25 15.8328 41.25 10 41.25C10 40.4172 10 39.5828 10 38.75Z" fill="white"/>
<path d="M10 57.5C15.8328 57.5 21.6672 57.5 27.5 57.5C27.5 58.3328 27.5 59.1656 27.5 60C21.6672 60 15.8328 60 10 60C10 59.1656 10 58.3328 10 57.5Z" fill="white"/>
<path d="M10.8375 62.5719C11.0234 62.5203 11.2141 62.4953 11.4078 62.5C30.4703 62.5 49.5344 62.5 68.5969 62.5C69.3078 62.4203 70.0125 63.0063 69.9922 63.7359C70.0047 66.2453 70.0047 68.7578 69.9922 71.2672C70.0094 71.9938 69.3063 72.5766 68.5984 72.5C49.5297 72.5 30.4609 72.5 11.3922 72.5C10.6828 72.5734 9.98281 71.9844 10.0063 71.2578C9.99063 68.8063 10.0047 66.3531 10 63.9C9.95156 63.3328 10.2859 62.75 10.8375 62.5719ZM12.5 65C12.5 66.6672 12.5 68.3328 12.5 70C30.8328 70 49.1672 70 67.5 70C67.5 68.3328 67.5 66.6672 67.5 65C49.1672 65 30.8328 65 12.5 65Z" fill="white"/>
</svg>
