<svg width="80" height="80" viewBox="0 0 80 80" fill="none" xmlns="http://www.w3.org/2000/svg">
    <path d="M5.39075 2.60023C5.72513 2.52211 6.07044 2.50492 6.41263 2.49867C28.8064 2.50179 51.1986 2.50023 73.5923 2.49867C74.5236 2.47679 75.4689 2.77836 76.1751 3.39398C77.0486 4.12367 77.5345 5.26273 77.5001 6.39711C77.4986 28.433 77.5001 50.4705 77.5001 72.5065C77.4939 73.083 77.5267 73.6612 77.4626 74.2362C77.2986 75.6174 76.2876 76.858 74.9658 77.294C74.2783 77.544 73.5345 77.4987 72.8158 77.5002C50.6236 77.4971 28.4314 77.5049 6.23919 77.4971C4.24231 77.5408 2.45325 75.7502 2.50169 73.7518C2.49856 51.2502 2.49856 28.7471 2.50325 6.24554C2.47356 4.55179 3.74231 2.96586 5.39075 2.60023ZM5.00013 6.40336C5.00013 28.5393 5.00169 50.6768 4.99856 72.8127C5.022 73.4221 4.87044 74.1565 5.36419 74.6268C5.8345 75.1283 6.57513 74.9799 7.18919 75.0018C29.3267 74.9987 51.4658 75.0018 73.6048 75.0002C74.3861 75.0862 75.0892 74.3768 75.0001 73.5971C75.0001 52.3987 75.0001 31.1987 75.0001 10.0002C57.5001 10.0002 40.0001 10.0002 22.5001 10.0002C22.5001 9.16742 22.5001 8.33304 22.5001 7.50023C40.0001 7.50023 57.4986 7.50023 74.9986 7.50023C74.9908 6.97836 75.0392 6.45179 74.9548 5.93617C74.8173 5.33617 74.2017 4.94711 73.6017 5.00023C51.2032 5.00023 28.8033 5.00023 6.40325 5.00023C5.61888 4.90648 4.90638 5.61742 5.00013 6.40336Z" fill="#B11F77"/>
    <path d="M7.5 7.5C8.33281 7.5 9.16719 7.5 10 7.5C10 8.33281 10 9.16719 10 10C9.16719 10 8.33281 10 7.5 10C7.5 9.16719 7.5 8.33281 7.5 7.5Z" fill="#B11F77"/>
    <path d="M12.5 7.5C13.3328 7.5 14.1672 7.5 15 7.5C15 8.33281 15 9.16719 15 10C14.1672 10 13.3328 10 12.5 10C12.5 9.16719 12.5 8.33281 12.5 7.5Z" fill="#B11F77"/>
    <path d="M17.5 7.5C18.3328 7.5 19.1672 7.5 20 7.5C20 8.33281 20 9.16719 20 10C19.1672 10 18.3328 10 17.5 10C17.5 9.16719 17.5 8.33281 17.5 7.5Z" fill="#B11F77"/>
    <path d="M26.25 15C35.4172 15 44.5828 15 53.75 15C53.75 15.8328 53.75 16.6672 53.75 17.5C44.5828 17.5 35.4172 17.5 26.25 17.5C26.25 16.6672 26.25 15.8328 26.25 15Z" fill="#B11F77"/>
    <path d="M10 20C13.75 20 17.5 20 21.25 20C21.25 20.8328 21.25 21.6672 21.25 22.5C17.5 22.5 13.75 22.5 10 22.5C10 21.6672 10 20.8328 10 20Z" fill="#B11F77"/>
    <path d="M10.0077 26.2393C9.98275 25.5064 10.6952 24.919 11.4077 25.0002C30.4702 25.0002 49.5328 25.0002 68.5953 25.0002C69.0453 24.9736 69.5171 25.1502 69.7718 25.5346C70.0249 25.8721 69.9984 26.3127 70.0031 26.7111C69.989 29.0611 70.0124 31.4111 69.9921 33.7611C70.0078 34.419 69.4218 35.0065 68.764 34.9924C67.0937 35.0127 65.4218 34.994 63.7499 35.0002C63.7499 34.1674 63.7499 33.333 63.7499 32.5002C64.9999 32.4986 66.2499 32.5018 67.4999 32.5002C67.4999 30.833 67.4999 29.1674 67.4999 27.5002C49.1671 27.5002 30.8327 27.5002 12.4999 27.5002C12.4999 29.1674 12.4999 30.833 12.4999 32.5002C24.5827 32.5002 36.6671 32.5002 48.7499 32.5002C48.7499 33.333 48.7499 34.1674 48.7499 35.0002C36.5109 35.0018 24.2702 34.9971 12.0312 35.0018C11.5281 34.9846 10.9609 35.0846 10.5281 34.7674C10.1468 34.5111 9.97494 34.044 9.99994 33.5986C10.0046 31.1455 9.99056 28.6924 10.0077 26.2393Z" fill="#B11F77"/>
    <path d="M51.6174 31.3378C51.7815 30.4722 52.9189 30.0722 53.5971 30.6284C57.1846 33.2331 60.7596 35.8581 64.3439 38.469C64.7518 38.7362 65.0533 39.1987 64.9939 39.7019C64.9502 40.3019 64.4268 40.7987 63.8299 40.8362C62.6721 40.969 61.5111 41.0815 60.3533 41.2112C61.308 43.8315 62.283 46.4456 63.233 49.0675C63.469 49.6362 63.2127 50.355 62.6533 50.6237C62.133 50.8737 61.5736 51.03 61.0346 51.2331C63.1893 51.2722 65.344 51.2394 67.5002 51.2503C67.5002 49.5831 67.5002 47.9175 67.5002 46.2503C66.6658 46.2487 65.833 46.2503 65.0002 46.2503C65.0002 45.4159 65.0002 44.5831 65.0002 43.7503C66.2518 43.7565 67.5033 43.7378 68.7533 43.7565C69.4143 43.7362 70.0065 44.3237 69.9924 44.9847C70.0065 47.4925 70.0049 50.0003 69.9924 52.5097C70.0143 53.2378 69.3111 53.8253 68.6002 53.7503C49.5361 53.7503 30.4721 53.7503 11.4065 53.7503C10.6955 53.8284 9.98458 53.2456 10.008 52.5128C9.99552 50.0019 9.99395 47.4893 10.008 44.9784C9.98927 44.2503 10.6971 43.6706 11.4065 43.7503C23.0205 43.7503 34.6346 43.7503 46.2502 43.7503C46.2502 44.5831 46.2502 45.4159 46.2502 46.2503C35.0002 46.2503 23.7502 46.2503 12.5002 46.2503C12.5002 47.9175 12.5002 49.5831 12.5002 51.2503C27.0158 51.2503 41.5315 51.2503 56.0471 51.2503C55.1361 48.7659 54.2252 46.2815 53.3111 43.7987C52.2861 44.4784 51.2893 45.2003 50.2518 45.8597C49.394 46.3909 48.194 45.5003 48.4502 44.5269C49.4893 40.1269 50.5549 35.7315 51.6174 31.3378ZM53.6096 33.7331C52.9518 36.4597 52.2939 39.1847 51.644 41.9128C52.2314 41.5315 52.783 41.094 53.3908 40.7472C54.0205 40.4034 54.8783 40.7644 55.1018 41.4378C56.1205 44.169 57.1127 46.9112 58.1236 49.644C58.9065 49.3597 59.6877 49.0722 60.4674 48.7847C59.469 46.0362 58.4424 43.2972 57.4502 40.5456C57.2018 39.9019 57.6111 39.1081 58.283 38.9472C58.9783 38.805 59.694 38.7862 60.3971 38.6909C58.1393 37.0315 55.8768 35.3784 53.6096 33.7331Z" fill="#B11F77"/>
    <path d="M10 38.75C15.8328 38.75 21.6672 38.75 27.5 38.75C27.5 39.5828 27.5 40.4156 27.5 41.25C21.6672 41.25 15.8328 41.25 10 41.25C10 40.4172 10 39.5828 10 38.75Z" fill="#B11F77"/>
    <path d="M10 57.5C15.8328 57.5 21.6672 57.5 27.5 57.5C27.5 58.3328 27.5 59.1656 27.5 60C21.6672 60 15.8328 60 10 60C10 59.1656 10 58.3328 10 57.5Z" fill="#B11F77"/>
    <path d="M10.8377 62.5723C11.0237 62.5207 11.2143 62.4957 11.4081 62.5004C30.4706 62.5004 49.5346 62.5004 68.5971 62.5004C69.3081 62.4207 70.0127 63.0067 69.9924 63.7364C70.0049 66.2457 70.0049 68.7582 69.9924 71.2676C70.0096 71.9942 69.3065 72.577 68.5987 72.5004C49.5299 72.5004 30.4612 72.5004 11.3924 72.5004C10.6831 72.5739 9.98306 71.9848 10.0065 71.2582C9.99087 68.8067 10.0049 66.3536 10.0002 63.9004C9.95181 63.3332 10.2862 62.7504 10.8377 62.5723ZM12.5002 65.0004C12.5002 66.6676 12.5002 68.3332 12.5002 70.0004C30.8331 70.0004 49.1674 70.0004 67.5002 70.0004C67.5002 68.3332 67.5002 66.6676 67.5002 65.0004C49.1674 65.0004 30.8331 65.0004 12.5002 65.0004Z" fill="#B11F77"/>
</svg>
