<svg width="24" height="24" viewBox="0 0 24 24" fill="none" xmlns="http://www.w3.org/2000/svg">
<path d="M15 1.5C13.8162 1.50106 12.6495 1.78207 11.595 2.32009C10.5406 2.8581 9.62835 3.63787 8.93277 4.59572C8.23719 5.55357 7.778 6.66235 7.5927 7.83153C7.4074 9.00071 7.50125 10.1971 7.86656 11.3231L2.46938 16.7194C2.39975 16.7891 2.34454 16.8718 2.3069 16.9629C2.26926 17.0539 2.24992 17.1515 2.25 17.25V21C2.25 21.1989 2.32902 21.3897 2.46967 21.5303C2.61032 21.671 2.80109 21.75 3 21.75H6.75C6.94891 21.75 7.13968 21.671 7.28033 21.5303C7.42098 21.3897 7.5 21.1989 7.5 21V19.5H9C9.19891 19.5 9.38968 19.421 9.53033 19.2803C9.67098 19.1397 9.75 18.9489 9.75 18.75V17.25H11.25C11.3485 17.2501 11.4461 17.2307 11.5371 17.1931C11.6282 17.1555 11.7109 17.1003 11.7806 17.0306L12.6769 16.1334C13.7077 16.4681 14.7988 16.5754 15.875 16.4479C16.9513 16.3205 17.9871 15.9613 18.9112 15.3951C19.8353 14.8289 20.6257 14.0691 21.228 13.1681C21.8303 12.2671 22.2302 11.2463 22.4001 10.1759C22.5701 9.10556 22.506 8.01108 22.2124 6.96785C21.9187 5.92462 21.4025 4.95743 20.6991 4.13286C19.9958 3.3083 19.1222 2.64595 18.1383 2.19143C17.1544 1.73692 16.0838 1.50102 15 1.5ZM16.875 8.625C16.5783 8.625 16.2883 8.53703 16.0416 8.3722C15.795 8.20738 15.6027 7.97311 15.4892 7.69903C15.3756 7.42494 15.3459 7.12334 15.4038 6.83236C15.4617 6.54139 15.6046 6.27412 15.8143 6.06434C16.0241 5.85456 16.2914 5.7117 16.5824 5.65382C16.8733 5.59594 17.1749 5.62565 17.449 5.73918C17.7231 5.85271 17.9574 6.04497 18.1222 6.29165C18.287 6.53832 18.375 6.82833 18.375 7.125C18.375 7.52282 18.217 7.90436 17.9357 8.18566C17.6544 8.46696 17.2728 8.625 16.875 8.625Z" fill="#2AA2CB"/>
</svg>
