<svg width="80" height="80" viewBox="0 0 80 80" fill="none" xmlns="http://www.w3.org/2000/svg">
    <path d="M40.066 3.99219C40.78 3.81563 41.5613 4.4 41.566 5.14219C41.5894 5.87656 41.58 6.61406 41.5722 7.35C41.5972 7.97344 41.0894 8.55313 40.4675 8.60938C39.8113 8.7 39.1363 8.175 39.0957 7.50781C39.0628 6.72344 39.0753 5.93594 39.0878 5.15156C39.0972 4.60156 39.5253 4.09844 40.066 3.99219Z" fill="white"/>
    <path d="M28.6704 8.68912C29.5157 8.32974 30.161 9.09693 30.6751 9.64068C31.1079 10.1407 31.7907 10.5282 31.886 11.236C31.9923 11.9579 31.3532 12.6626 30.6266 12.6282C30.0485 12.6438 29.6579 12.1688 29.2907 11.7969C28.8938 11.3672 28.4344 10.9954 28.0766 10.5313C27.6313 9.90787 27.9532 8.94068 28.6704 8.68912Z" fill="white"/>
    <path d="M51.1391 8.6705C51.9047 8.37988 52.8078 9.03144 52.7813 9.84706C52.7969 10.5877 52.0985 11.008 51.6578 11.4971C51.1656 11.9393 50.7453 12.6424 50.0016 12.6283C49.286 12.6486 48.6688 11.9533 48.7672 11.2455C48.8313 10.6127 49.4156 10.2471 49.8094 9.81425C50.2438 9.42831 50.5844 8.89394 51.1391 8.6705Z" fill="white"/>
    <path d="M36.7736 11.4766C38.8001 10.7157 41.0736 10.636 43.1533 11.236C45.5329 11.9063 47.6314 13.4922 48.9548 15.5782C50.2298 17.5657 50.7673 20.0078 50.4626 22.3469C50.1689 24.7329 48.9986 27.0016 47.2111 28.611C46.8001 28.986 46.3314 29.3282 46.072 29.8344C45.7345 30.4641 45.7736 31.2 45.7626 31.8922C46.3017 32.3547 46.6954 33.0203 46.6736 33.7485C46.6329 34.6594 46.8486 35.6704 46.3204 36.4828C45.9626 37.0735 45.3173 37.4125 44.6533 37.5297C44.6204 38.3032 44.7736 39.1328 44.4001 39.8485C44.022 40.6047 43.1923 41.0844 42.3501 41.061C40.9454 41.0594 39.5408 41.0735 38.1361 41.0532C37.1314 41.0282 36.2158 40.2328 36.0501 39.2422C35.9658 38.675 36.0173 38.0985 36.0048 37.5282C34.9658 37.4 34.047 36.5329 33.997 35.4641C33.9704 34.236 33.7517 32.7266 34.8876 31.8938C34.9689 30.8657 34.7954 29.7172 33.9267 29.0453C32.2423 27.6563 30.9673 25.7594 30.4314 23.6344C29.8845 21.5313 30.0267 19.2547 30.8439 17.2407C31.897 14.6032 34.1048 12.4516 36.7736 11.4766ZM33.5689 17.3344C32.4408 19.3469 32.3017 21.8735 33.1892 24.0016C33.6939 25.2688 34.5783 26.3438 35.622 27.2063C36.8454 28.2578 37.4548 29.886 37.3986 31.4813C37.9579 31.4782 38.5189 31.4782 39.0783 31.4782C39.0798 29.4141 39.0814 27.3516 39.0783 25.2875C37.0423 24.7078 35.6486 22.5453 35.9736 20.4516C36.2189 18.5172 37.9017 16.8469 39.8579 16.6907C41.5376 16.511 43.2783 17.3828 44.1329 18.8407C44.9345 20.1938 44.9189 21.9813 44.097 23.3219C43.5423 24.2672 42.6142 24.9532 41.5783 25.2891C41.5751 27.3516 41.5767 29.4157 41.5767 31.4782C42.1392 31.4797 42.7017 31.4797 43.2642 31.4782C43.2579 30.486 43.4048 29.4703 43.9126 28.6C44.4251 27.5407 45.4923 26.9438 46.2158 26.0532C47.6658 24.3625 48.3126 22.0219 47.9454 19.8266C47.6126 17.6875 46.3189 15.7297 44.497 14.5657C42.8548 13.5032 40.7986 13.1125 38.8798 13.4828C36.6533 13.8938 34.6579 15.3516 33.5689 17.3344ZM39.597 19.3141C38.7314 19.6485 38.2345 20.6688 38.4939 21.5594C38.7439 22.6032 39.9861 23.2344 40.9814 22.8454C41.9064 22.5219 42.4517 21.4188 42.1314 20.4875C41.8345 19.4563 40.5798 18.8578 39.597 19.3141ZM36.4829 33.9797C36.4829 34.325 36.4829 34.6719 36.4829 35.0172C39.0454 35.0235 41.6095 35.0219 44.172 35.0188C44.172 34.6719 44.1704 34.325 44.1704 33.9797C41.6079 33.9797 39.0454 33.9782 36.4829 33.9797ZM38.5048 37.5313C38.5033 37.875 38.5033 38.2188 38.5048 38.5641C39.7204 38.561 40.9376 38.5641 42.1533 38.5625C42.1533 38.2188 42.1533 37.875 42.1533 37.5313C40.9361 37.5297 39.7204 37.5313 38.5048 37.5313Z" fill="white"/>
    <path d="M23.9718 19.9204C24.7078 19.7033 25.4953 19.8595 26.2531 19.8095C26.7937 19.7658 27.4093 19.9033 27.6968 20.4095C28.1703 21.1064 27.6937 22.1704 26.8609 22.2829C26.0843 22.3454 25.3015 22.3064 24.5234 22.3079C23.9593 22.3329 23.4125 21.9392 23.2734 21.3892C23.1047 20.8126 23.4218 20.1533 23.9718 19.9204Z" fill="white"/>
    <path d="M53.6222 19.8796C54.4862 19.7437 55.3753 19.8281 56.2503 19.8234C57.2222 19.8218 57.7972 21.1109 57.1534 21.8374C56.6816 22.4656 55.8269 22.2921 55.1487 22.3124C54.4597 22.2749 53.6112 22.4874 53.0941 21.8968C52.4909 21.2812 52.7925 20.1203 53.6222 19.8796Z" fill="white"/>
    <path d="M35.8142 44.2579C37.572 42.9641 39.8954 42.4954 42.022 42.9797C44.5579 43.5219 46.7251 45.4579 47.5814 47.9016C48.4954 50.3969 47.9814 53.3313 46.2923 55.3797C48.472 55.7891 50.6486 56.8219 51.9533 58.6766C52.9611 60.0626 53.3017 61.8141 53.2501 63.5001C53.8673 63.1969 54.5126 62.9501 55.1767 62.7688C54.1439 61.361 53.6439 59.5657 53.8704 57.8297C54.0892 55.9079 55.1783 54.1172 56.7642 53.0172C58.3705 51.8766 60.4798 51.5001 62.3845 51.9876C64.5955 52.5297 66.4704 54.2501 67.197 56.4079C67.9533 58.5219 67.5533 60.9719 66.2236 62.7719C68.6064 63.3891 70.7173 64.9719 71.9658 67.0954C72.8267 68.5313 73.2814 70.2016 73.2876 71.8751C73.2908 73.0766 73.297 74.2782 73.2861 75.4813C73.3111 76.0532 72.9017 76.6063 72.3423 76.7329C71.9267 76.8001 71.5064 76.7657 71.0892 76.7719C50.3079 76.7688 29.5283 76.7688 8.74701 76.7719C8.08139 76.8391 7.41107 76.3141 7.38139 75.636C7.34857 74.3813 7.37357 73.1266 7.37045 71.8719C7.37045 69.7204 8.1392 67.5829 9.51264 65.9266C10.7658 64.3876 12.5189 63.2735 14.4376 62.7704C13.2704 61.1954 12.8033 59.1188 13.2361 57.2001C13.6329 55.3047 14.8861 53.6172 16.572 52.6719C18.2986 51.6782 20.4658 51.5063 22.3314 52.2001C24.1158 52.8469 25.5954 54.2735 26.3142 56.0297C27.2454 58.2204 26.9017 60.8657 25.4798 62.7688C26.1439 62.9501 26.7892 63.1954 27.4048 63.5001C27.3548 61.7782 27.7111 59.986 28.7673 58.5891C30.0814 56.7891 32.2189 55.7829 34.3658 55.3797C33.1189 53.8407 32.4751 51.8235 32.6548 49.8469C32.8236 47.6391 34.0173 45.5485 35.8142 44.2579ZM39.147 45.4266C38.2095 45.6422 37.3376 46.1313 36.6579 46.811C34.8517 48.5313 34.6189 51.5782 36.1236 53.5626C37.5158 55.5501 40.3736 56.2797 42.5501 55.2016C44.8861 54.1547 46.1298 51.2454 45.2579 48.8344C44.4814 46.3547 41.6689 44.7797 39.147 45.4266ZM60.2142 54.3016C58.1189 54.4688 56.4095 56.3719 56.3251 58.4469C56.1892 60.1797 57.2579 61.8735 58.8048 62.6172C60.533 63.4735 62.7751 62.9672 64.022 61.5126C65.3579 60.0454 65.4236 57.6454 64.2345 56.0719C63.3345 54.8188 61.7439 54.1266 60.2142 54.3016ZM18.6501 54.4688C16.8236 55.0047 15.5392 56.8594 15.5736 58.7469C15.5595 60.7344 17.1158 62.5735 19.0548 62.9516C20.6517 63.2829 22.3923 62.6391 23.4048 61.3641C24.6001 59.911 24.6392 57.6688 23.5454 56.1485C22.5001 54.6047 20.422 53.9032 18.6501 54.4688ZM33.5204 58.1735C32.1861 58.6172 30.9298 59.5079 30.3439 60.8235C29.9376 61.686 29.8861 62.6563 29.9017 63.5938C29.9064 66.4079 29.8986 69.2235 29.9048 72.0376C29.872 73.2532 31.0033 74.2735 32.1908 74.2657C35.9064 74.2782 39.622 74.2688 43.3376 74.2688C40.7533 72.4172 37.6939 71.2688 34.5517 70.8313C33.8533 70.7626 33.3908 70.0501 33.4751 69.3782C33.4814 67.3438 33.472 65.3094 33.4798 63.2751C33.4298 62.5969 34.0095 61.9579 34.6939 61.961C35.4048 61.9204 36.0251 62.5797 35.9704 63.2844C35.9736 64.9688 35.9829 66.6547 35.9642 68.3391C38.8689 68.3735 41.7751 68.3454 44.6814 68.3532C44.6861 66.5047 44.6751 64.6563 44.6845 62.8063C44.6298 62.111 45.2361 61.4563 45.9392 61.4813C46.6314 61.4672 47.2189 62.1126 47.1751 62.7969C47.1798 65.0454 47.1814 67.2938 47.1751 69.5438C47.2189 70.2282 46.6236 70.8704 45.9298 70.8485C44.8173 70.8672 43.7033 70.8454 42.5892 70.8563C44.2767 71.7829 45.8361 72.9313 47.2251 74.2657C48.0158 74.2735 48.8767 74.3719 49.5955 73.9672C50.3361 73.5594 50.7923 72.7172 50.747 71.8735C50.7408 68.8532 50.7579 65.8329 50.7392 62.8126C50.7283 61.4469 50.1423 60.0766 49.0626 59.2204C47.5345 57.9907 45.4986 57.6563 43.5892 57.6344C43.1751 57.6094 42.7954 57.8016 42.4064 57.9094C40.7954 58.3829 39.0517 58.2532 37.4861 57.6735C36.1548 57.5688 34.7908 57.7594 33.5204 58.1735ZM10.2642 69.5938C9.69857 71.0891 9.90326 72.7094 9.86576 74.2704C15.9017 74.2735 21.9361 74.2688 27.9704 74.2719C27.6236 73.5797 27.4095 72.8172 27.4111 72.0391C27.4001 70.1751 27.4173 68.3094 27.4033 66.4438C26.0658 65.4235 24.3595 64.8547 22.6751 64.9969C20.9751 65.6844 19.0283 65.7188 17.3251 65.0219C14.2954 64.6751 11.2423 66.7266 10.2642 69.5938ZM53.2579 66.4438C53.233 68.3047 53.2595 70.1672 53.2454 72.0282C53.2501 72.811 53.033 73.5782 52.6814 74.2719C58.7173 74.2688 64.7548 74.2735 70.7908 74.2704C70.7845 73.3657 70.8095 72.461 70.7767 71.5579C70.7064 69.8626 69.9642 68.2141 68.7673 67.0157C67.3923 65.6188 65.3955 64.8516 63.4392 64.9907C61.7486 65.6657 59.8126 65.7313 58.1158 65.0344C56.3986 64.7876 54.6298 65.4141 53.2579 66.4438Z" fill="white"/>
</svg>
