<svg width="80" height="80" viewBox="0 0 80 80" fill="none" xmlns="http://www.w3.org/2000/svg">
<path d="M40.0655 3.99219C40.7795 3.81563 41.5608 4.4 41.5655 5.14219C41.5889 5.87656 41.5795 6.61406 41.5717 7.35C41.5967 7.97344 41.0889 8.55313 40.467 8.60938C39.8108 8.7 39.1358 8.175 39.0952 7.50781C39.0623 6.72344 39.0748 5.93594 39.0873 5.15156C39.0967 4.60156 39.5249 4.09844 40.0655 3.99219Z" fill="#B11F77"/>
<path d="M28.6701 8.68906C29.5154 8.32968 30.1608 9.09687 30.6748 9.64062C31.1076 10.1406 31.7905 10.5281 31.8858 11.2359C31.992 11.9578 31.3529 12.6625 30.6264 12.6281C30.0483 12.6437 29.6576 12.1687 29.2905 11.7969C28.8936 11.3672 28.4342 10.9953 28.0764 10.5312C27.6311 9.90781 27.9529 8.94062 28.6701 8.68906Z" fill="#B11F77"/>
<path d="M51.1391 8.67032C51.9047 8.37969 52.8078 9.03125 52.7813 9.84688C52.7969 10.5875 52.0985 11.0078 51.6578 11.4969C51.1656 11.9391 50.7453 12.6422 50.0016 12.6281C49.286 12.6484 48.6688 11.9531 48.7672 11.2453C48.8313 10.6125 49.4156 10.2469 49.8094 9.81407C50.2438 9.42813 50.5844 8.89375 51.1391 8.67032Z" fill="#B11F77"/>
<path d="M36.7733 11.4766C38.7999 10.7156 41.0733 10.6359 43.153 11.2359C45.5327 11.9063 47.6311 13.4922 48.9546 15.5781C50.2296 17.5656 50.7671 20.0078 50.4624 22.3469C50.1686 24.7328 48.9983 27.0016 47.2108 28.6109C46.7999 28.9859 46.3311 29.3281 46.0718 29.8344C45.7343 30.4641 45.7733 31.2 45.7624 31.8922C46.3015 32.3547 46.6952 33.0203 46.6733 33.7484C46.6327 34.6594 46.8483 35.6703 46.3202 36.4828C45.9624 37.0734 45.3171 37.4125 44.653 37.5297C44.6202 38.3031 44.7733 39.1328 44.3999 39.8484C44.0218 40.6047 43.1921 41.0844 42.3499 41.0609C40.9452 41.0594 39.5405 41.0734 38.1358 41.0531C37.1311 41.0281 36.2155 40.2328 36.0499 39.2422C35.9655 38.675 36.0171 38.0984 36.0046 37.5281C34.9655 37.4 34.0468 36.5328 33.9968 35.4641C33.9702 34.2359 33.7515 32.7266 34.8874 31.8938C34.9686 30.8656 34.7952 29.7172 33.9265 29.0453C32.2421 27.6563 30.9671 25.7594 30.4311 23.6344C29.8843 21.5313 30.0265 19.2547 30.8436 17.2406C31.8968 14.6031 34.1046 12.4516 36.7733 11.4766ZM33.5686 17.3344C32.4405 19.3469 32.3015 21.8734 33.189 24.0016C33.6936 25.2688 34.578 26.3438 35.6218 27.2063C36.8452 28.2578 37.4546 29.8859 37.3983 31.4813C37.9577 31.4781 38.5186 31.4781 39.078 31.4781C39.0796 29.4141 39.0811 27.3516 39.078 25.2875C37.0421 24.7078 35.6483 22.5453 35.9733 20.4516C36.2186 18.5172 37.9015 16.8469 39.8577 16.6906C41.5374 16.5109 43.278 17.3828 44.1327 18.8406C44.9343 20.1938 44.9186 21.9813 44.0968 23.3219C43.5421 24.2672 42.614 24.9531 41.578 25.2891C41.5749 27.3516 41.5765 29.4156 41.5765 31.4781C42.139 31.4797 42.7015 31.4797 43.264 31.4781C43.2577 30.4859 43.4046 29.4703 43.9124 28.6C44.4249 27.5406 45.4921 26.9438 46.2155 26.0531C47.6655 24.3625 48.3124 22.0219 47.9452 19.8266C47.6124 17.6875 46.3186 15.7297 44.4968 14.5656C42.8546 13.5031 40.7983 13.1125 38.8796 13.4828C36.653 13.8938 34.6577 15.3516 33.5686 17.3344ZM39.5968 19.3141C38.7311 19.6484 38.2343 20.6688 38.4936 21.5594C38.7436 22.6031 39.9858 23.2344 40.9811 22.8453C41.9061 22.5219 42.4515 21.4188 42.1311 20.4875C41.8343 19.4563 40.5796 18.8578 39.5968 19.3141ZM36.4827 33.9797C36.4827 34.325 36.4827 34.6719 36.4827 35.0172C39.0452 35.0234 41.6093 35.0219 44.1718 35.0188C44.1718 34.6719 44.1702 34.325 44.1702 33.9797C41.6077 33.9797 39.0452 33.9781 36.4827 33.9797ZM38.5046 37.5313C38.503 37.875 38.503 38.2188 38.5046 38.5641C39.7202 38.5609 40.9374 38.5641 42.153 38.5625C42.153 38.2188 42.153 37.875 42.153 37.5313C40.9358 37.5297 39.7202 37.5313 38.5046 37.5313Z" fill="#B11F77"/>
<path d="M23.9718 19.9203C24.7078 19.7031 25.4953 19.8594 26.2531 19.8094C26.7937 19.7656 27.4093 19.9031 27.6968 20.4094C28.1703 21.1063 27.6937 22.1703 26.8609 22.2828C26.0843 22.3453 25.3015 22.3063 24.5234 22.3078C23.9593 22.3328 23.4125 21.9391 23.2734 21.3891C23.1047 20.8125 23.4218 20.1531 23.9718 19.9203Z" fill="#B11F77"/>
<path d="M53.6217 19.8797C54.4858 19.7437 55.3748 19.8281 56.2498 19.8234C57.2217 19.8219 57.7967 21.1109 57.1529 21.8375C56.6811 22.4656 55.8264 22.2922 55.1483 22.3125C54.4592 22.275 53.6108 22.4875 53.0936 21.8969C52.4904 21.2812 52.792 20.1203 53.6217 19.8797Z" fill="#B11F77"/>
<path d="M35.814 44.2578C37.5718 42.9641 39.8952 42.4953 42.0218 42.9797C44.5577 43.5219 46.7249 45.4578 47.5811 47.9016C48.4952 50.3969 47.9811 53.3312 46.2921 55.3797C48.4718 55.7891 50.6483 56.8219 51.953 58.6766C52.9608 60.0625 53.3015 61.8141 53.2499 63.5C53.8671 63.1969 54.5124 62.95 55.1765 62.7687C54.1436 61.3609 53.6436 59.5656 53.8702 57.8297C54.089 55.9078 55.178 54.1172 56.764 53.0172C58.3702 51.8766 60.4796 51.5 62.3843 51.9875C64.5952 52.5297 66.4702 54.25 67.1968 56.4078C67.953 58.5219 67.553 60.9719 66.2233 62.7719C68.6061 63.3891 70.7171 64.9719 71.9655 67.0953C72.8265 68.5312 73.2811 70.2016 73.2874 71.875C73.2905 73.0766 73.2968 74.2781 73.2858 75.4812C73.3108 76.0531 72.9015 76.6062 72.3421 76.7328C71.9265 76.8 71.5061 76.7656 71.089 76.7719C50.3077 76.7687 29.528 76.7687 8.74677 76.7719C8.08114 76.8391 7.41083 76.3141 7.38114 75.6359C7.34833 74.3812 7.37333 73.1266 7.3702 71.8719C7.3702 69.7203 8.13895 67.5828 9.51239 65.9266C10.7655 64.3875 12.5186 63.2734 14.4374 62.7703C13.2702 61.1953 12.803 59.1187 13.2358 57.2C13.6327 55.3047 14.8858 53.6172 16.5718 52.6719C18.2983 51.6781 20.4655 51.5062 22.3311 52.2C24.1155 52.8469 25.5952 54.2734 26.314 56.0297C27.2452 58.2203 26.9015 60.8656 25.4796 62.7687C26.1436 62.95 26.789 63.1953 27.4046 63.5C27.3546 61.7781 27.7108 59.9859 28.7671 58.5891C30.0811 56.7891 32.2186 55.7828 34.3655 55.3797C33.1186 53.8406 32.4749 51.8234 32.6546 49.8469C32.8233 47.6391 34.0171 45.5484 35.814 44.2578ZM39.1468 45.4266C38.2093 45.6422 37.3374 46.1312 36.6577 46.8109C34.8515 48.5312 34.6186 51.5781 36.1233 53.5625C37.5155 55.55 40.3733 56.2797 42.5499 55.2016C44.8858 54.1547 46.1296 51.2453 45.2577 48.8344C44.4811 46.3547 41.6686 44.7797 39.1468 45.4266ZM60.214 54.3016C58.1186 54.4687 56.4093 56.3719 56.3249 58.4469C56.189 60.1797 57.2577 61.8734 58.8046 62.6172C60.5327 63.4734 62.7749 62.9672 64.0218 61.5125C65.3577 60.0453 65.4233 57.6453 64.2343 56.0719C63.3343 54.8187 61.7436 54.1266 60.214 54.3016ZM18.6499 54.4687C16.8233 55.0047 15.539 56.8594 15.5733 58.7469C15.5593 60.7344 17.1155 62.5734 19.0546 62.9516C20.6515 63.2828 22.3921 62.6391 23.4046 61.3641C24.5999 59.9109 24.639 57.6687 23.5452 56.1484C22.4999 54.6047 20.4218 53.9031 18.6499 54.4687ZM33.5202 58.1734C32.1858 58.6172 30.9296 59.5078 30.3436 60.8234C29.9374 61.6859 29.8858 62.6562 29.9015 63.5937C29.9061 66.4078 29.8983 69.2234 29.9046 72.0375C29.8718 73.2531 31.003 74.2734 32.1905 74.2656C35.9061 74.2781 39.6218 74.2687 43.3374 74.2687C40.753 72.4172 37.6936 71.2687 34.5515 70.8312C33.853 70.7625 33.3905 70.05 33.4749 69.3781C33.4811 67.3437 33.4718 65.3094 33.4796 63.275C33.4296 62.5969 34.0093 61.9578 34.6936 61.9609C35.4046 61.9203 36.0249 62.5797 35.9702 63.2844C35.9733 64.9687 35.9827 66.6547 35.964 68.3391C38.8686 68.3734 41.7749 68.3453 44.6811 68.3531C44.6858 66.5047 44.6749 64.6562 44.6843 62.8062C44.6296 62.1109 45.2358 61.4562 45.939 61.4812C46.6311 61.4672 47.2186 62.1125 47.1749 62.7969C47.1796 65.0453 47.1811 67.2937 47.1749 69.5437C47.2186 70.2281 46.6233 70.8703 45.9296 70.8484C44.8171 70.8672 43.703 70.8453 42.589 70.8562C44.2765 71.7828 45.8358 72.9312 47.2249 74.2656C48.0155 74.2734 48.8765 74.3719 49.5952 73.9672C50.3358 73.5594 50.7921 72.7172 50.7468 71.8734C50.7405 68.8531 50.7577 65.8328 50.739 62.8125C50.728 61.4469 50.1421 60.0766 49.0624 59.2203C47.5343 57.9906 45.4983 57.6562 43.589 57.6344C43.1749 57.6094 42.7952 57.8016 42.4061 57.9094C40.7952 58.3828 39.0515 58.2531 37.4858 57.6734C36.1546 57.5687 34.7905 57.7594 33.5202 58.1734ZM10.264 69.5937C9.69833 71.0891 9.90302 72.7094 9.86552 74.2703C15.9015 74.2734 21.9358 74.2687 27.9702 74.2719C27.6233 73.5797 27.4093 72.8172 27.4108 72.0391C27.3999 70.175 27.4171 68.3094 27.403 66.4437C26.0655 65.4234 24.3593 64.8547 22.6749 64.9969C20.9749 65.6844 19.028 65.7187 17.3249 65.0219C14.2952 64.675 11.2421 66.7266 10.264 69.5937ZM53.2577 66.4437C53.2327 68.3047 53.2593 70.1672 53.2452 72.0281C53.2499 72.8109 53.0327 73.5781 52.6811 74.2719C58.7171 74.2687 64.7546 74.2734 70.7905 74.2703C70.7843 73.3656 70.8093 72.4609 70.7765 71.5578C70.7061 69.8625 69.964 68.2141 68.7671 67.0156C67.3921 65.6187 65.3952 64.8516 63.439 64.9906C61.7483 65.6656 59.8124 65.7312 58.1155 65.0344C56.3983 64.7875 54.6296 65.4141 53.2577 66.4437Z" fill="#B11F77"/>
</svg>
