<svg width="80" height="80" viewBox="0 0 80 80" fill="none" xmlns="http://www.w3.org/2000/svg">
    <g clip-path="url(#clip0_206_313)">
        <path d="M39.7547 0H40.2453C42.0578 0.08125 43.825 0.967188 44.9266 2.41719C45.9047 3.65781 46.3125 5.26719 46.2422 6.83125C48.9953 8.17969 51.6859 9.92969 53.4312 12.5078C53.6672 12.8797 54.1266 12.9781 54.4969 13.1656C59.4688 15.425 63.9063 18.8563 67.3266 23.1156C71.6391 28.4594 74.3047 35.1078 74.8734 41.9516C75.1375 45.0234 74.9813 48.1281 74.4453 51.1641C76.4422 52.3531 78.0219 54.2656 78.6312 56.525C79.5469 59.8078 78.8375 63.2828 77.7469 66.4297C79.0234 67.5125 79.825 69.0859 80 70.7469V71.7312C79.8187 73.6859 78.7344 75.5547 77.0359 76.5703C74.8516 77.9437 71.8203 77.7531 69.8328 76.1047C69.5109 75.8438 69.225 75.5453 68.9406 75.2484C66.2875 76.1453 63.4672 76.8141 60.6531 76.4578C59.4766 76.3375 58.3156 76.0203 57.2797 75.4422C54.9234 76.7438 52.4422 77.8297 49.8531 78.5781C47.0297 79.425 44.0953 79.8469 41.1562 80H38.8531C33.3656 79.7703 27.9141 78.325 23.1141 75.6422C22.6094 75.2609 22.0844 75.8281 21.5797 75.9391C18.1453 77.1281 14.4 76.4078 11.0609 75.2484C10.2703 76.1312 9.27656 76.85 8.13281 77.1953C6.03437 77.8781 3.59063 77.35 1.98594 75.8281C0.839062 74.7844 0.167188 73.2953 0 71.7641V70.7641C0.160937 69.0938 0.975 67.5172 2.25312 66.4297C1.17188 63.3141 0.46875 59.8828 1.3375 56.6266C1.93281 54.3281 3.525 52.3719 5.55 51.1641C4.11562 43.3078 5.50938 34.9813 9.40625 28.0109C13.0172 21.4719 18.7844 16.1422 25.6125 13.1031C25.9516 12.9375 26.3672 12.8437 26.5812 12.5031C28.3203 9.91562 31.0172 8.16719 33.7766 6.82656C33.6672 5.22812 34.1156 3.57656 35.1437 2.33125C36.2547 0.934375 37.9828 0.103125 39.7547 0ZM39.2781 2.58125C38.1859 2.80625 37.2016 3.52813 36.6875 4.52031C36.0469 5.71719 36.1375 7.26094 36.9125 8.375C37.5609 9.33594 38.6828 9.95 39.8391 9.99062C41.0203 10.05 42.2188 9.51719 42.9453 8.58125C43.9859 7.29687 44.0141 5.325 43.025 4.00469C42.1969 2.84844 40.6641 2.27344 39.2781 2.58125ZM28.6188 13.9359C27.5766 15.4484 27.2453 17.4047 27.6938 19.1844C28.2641 21.3891 28.8734 23.5844 29.4531 25.7875C29.5719 26.2687 29.7594 26.7656 30.1641 27.0813C30.8547 27.6734 31.9688 27.6156 32.6281 27.0031C33.1328 26.5563 33.3328 25.8219 33.1609 25.1734C32.6953 23.3391 32.1703 21.5203 31.7047 19.6859C31.5203 19.0672 31.9719 18.5391 32.2469 18.0312C32.5641 17.5344 32.7766 16.8609 33.3984 16.6688C34.1516 16.3813 35.0484 17.0078 35.0406 17.8141C35.0234 18.4719 34.5406 18.9844 34.2594 19.5484C34.6875 21.1875 35.1344 22.8203 35.5672 24.4594C35.8031 25.3469 35.7672 26.3094 35.4312 27.1672C34.8641 28.7109 33.3625 29.8563 31.7188 29.9719C29.7172 30.1703 27.6953 28.8016 27.1578 26.8594C26.5437 24.6187 25.9531 22.3719 25.35 20.1297C24.9922 18.8219 24.8922 17.4438 25.1047 16.1031C18.5562 19.4531 13.2266 25.1016 10.2703 31.8359C7.77344 37.4453 6.93281 43.7703 7.85938 49.8391C9.20625 49.0719 10.5359 48.2734 11.8938 47.5266C13.8703 46.4906 16.55 47.3078 17.6172 49.2656C18.7578 51.1562 18.1406 53.8438 16.2922 55.0484C14.8594 55.9234 13.3906 56.7406 11.9359 57.5812C11.325 57.8562 11.4766 58.6594 11.1953 59.1734C10.8656 60.0484 9.525 60.1719 9.03281 59.3766C8.60781 58.8031 8.93281 58.1 9.08125 57.4922C9.25313 56.9062 9.31719 56.1703 9.93125 55.8609C11.5125 54.9391 13.1016 54.0328 14.6828 53.1109C15.1516 52.8469 15.5406 52.4141 15.6578 51.8781C15.8766 51.0031 15.3578 50.0234 14.5219 49.6938C13.9672 49.4563 13.3203 49.5578 12.8141 49.8672C10.8703 50.9891 8.92656 52.1078 6.98281 53.2312C5.41406 54.0969 4.16875 55.5797 3.73906 57.3344C3.06719 59.9688 3.67344 62.7203 4.49375 65.25C6.85469 64.5625 9.57812 65.3844 11.1016 67.3297C12.3859 68.8891 12.7844 71.0734 12.2422 73.0094C14.6922 73.8 17.3359 74.3953 19.9 73.8312C21.6469 73.4734 23.1813 72.3297 24.0953 70.8078C25.2547 68.8406 26.3797 66.85 27.5312 64.8766C27.7969 64.4391 28.0016 63.9344 27.9141 63.4125C27.8062 62.4141 26.7797 61.6469 25.7922 61.8219C25.1516 61.9 24.625 62.3547 24.3359 62.9141C23.4359 64.4734 22.5438 66.0375 21.6359 67.5906C21.3125 68.1984 20.5734 68.2547 19.9859 68.4297C19.4422 68.55 18.8578 68.8406 18.3125 68.5719C17.6219 68.2781 17.3625 67.3187 17.8188 66.7219C18.2547 66.0828 19.1437 66.2016 19.7422 65.8422C20.625 64.3797 21.4484 62.8797 22.3219 61.4109C22.8516 60.5281 23.7047 59.8469 24.6844 59.5297C26.2359 58.9922 28.0578 59.4391 29.1922 60.625C30.2219 61.6703 30.6672 63.2531 30.3172 64.6813C30.1844 65.2687 29.8953 65.8031 29.5906 66.3172C28.8828 67.5375 28.1797 68.7594 27.4734 69.9797C26.6984 71.2953 26.0156 72.6922 24.9234 73.7844C29.0484 75.9422 33.6375 77.2062 38.2875 77.4453C44.0781 77.7609 49.9406 76.4766 55.075 73.7859C53.9813 72.6953 53.3016 71.2937 52.525 69.9781C51.7094 68.5578 50.8781 67.1453 50.0734 65.7188C49.0906 63.9375 49.6016 61.5203 51.2 60.2703C52.6922 59.0219 55.0203 58.9938 56.5578 60.1766C57.4656 60.8125 57.9187 61.8516 58.4703 62.7719C59.075 63.7984 59.6469 64.8453 60.2687 65.8594C60.9375 66.2016 61.9375 66.1078 62.2891 66.9109C62.7828 67.825 61.7828 68.9859 60.8047 68.6344C59.9547 68.3266 58.7828 68.4 58.3031 67.4938C57.4031 65.9344 56.5062 64.3734 55.6047 62.8172C55.3625 62.3953 54.9938 62.0281 54.5219 61.8828C53.6188 61.5641 52.5375 62.0859 52.1906 62.9703C51.9547 63.5234 52.0531 64.1719 52.3594 64.6781C53.5187 66.6906 54.675 68.7047 55.8438 70.7125C56.7359 72.2469 58.2484 73.425 59.9937 73.8078C62.5875 74.4125 65.275 73.8109 67.7578 73.0078C67.0781 70.6797 67.8594 67.9969 69.7516 66.4594C71.3141 65.1297 73.5406 64.6937 75.5062 65.25C76.3047 62.7766 76.9 60.1016 76.3078 57.5172C75.9422 55.8016 74.8063 54.3031 73.3078 53.4078C71.3391 52.25 69.3516 51.1219 67.3766 49.9719C66.9828 49.7406 66.5469 49.5328 66.0781 49.5641C65.3328 49.5812 64.6641 50.1141 64.4125 50.8031C64.075 51.625 64.4563 52.6266 65.225 53.0531C66.8625 54.0219 68.5266 54.9453 70.1594 55.9219C70.7062 56.2516 70.7469 56.9453 70.9203 57.4984C71.0547 58.0766 71.3641 58.7188 71.0234 59.2844C70.6734 59.9531 69.6922 60.1266 69.1344 59.6219C68.5812 59.1578 68.6813 58.3438 68.3484 57.7641C66.9062 56.8969 65.4344 56.0797 63.9844 55.2281C62.8266 54.5625 62.0141 53.3453 61.8453 52.0203C61.5938 50.3687 62.4141 48.6234 63.8359 47.7516C65.1609 46.9062 66.9453 46.8453 68.3109 47.6328C69.5922 48.3531 70.8578 49.1031 72.1344 49.8344C73.3656 41.8688 71.4656 33.4813 66.9359 26.8172C63.9031 22.3016 59.7031 18.5922 54.8688 16.1C55.0766 17.4422 55.0078 18.8234 54.65 20.1328C54.0609 22.3313 53.4734 24.5297 52.8812 26.7266C52.5687 27.925 51.7219 28.9641 50.6172 29.5156C49.3813 30.1547 47.8391 30.1469 46.6141 29.4859C44.9156 28.6141 43.9375 26.5453 44.3844 24.6797C44.8187 22.9656 45.3016 21.2625 45.7453 19.5484C45.4641 18.9859 44.9781 18.4781 44.9562 17.8219C44.9437 17.0141 45.8328 16.3828 46.5906 16.6609C47.2172 16.85 47.4328 17.525 47.7516 18.0234C48.025 18.5312 48.4719 19.0594 48.2937 19.675C47.8312 21.5063 47.3078 23.3234 46.8438 25.1531C46.6828 25.7344 46.8187 26.3891 47.2203 26.8422C47.8312 27.5594 49.0047 27.7172 49.7609 27.1391C50.1813 26.8438 50.4031 26.3578 50.5266 25.8734C51.1125 23.6484 51.725 21.4313 52.3031 19.2047C52.725 17.5641 52.5297 15.75 51.6203 14.3031C50.2125 11.9844 47.8531 10.4594 45.4859 9.25469C44.4016 11.2063 42.2484 12.5234 40.0031 12.4969C37.7578 12.5219 35.6047 11.2047 34.5234 9.25156C32.2781 10.3922 30.0469 11.8078 28.6188 13.9359ZM5.39062 67.5922C3.73594 67.95 2.46875 69.5594 2.48594 71.2484C2.44375 73.0828 3.94219 74.7812 5.7625 74.9797C7.61094 75.2531 9.49687 73.9219 9.89688 72.1063C10.2875 70.5687 9.54375 68.8672 8.2 68.0484C7.36875 67.5406 6.33906 67.3828 5.39062 67.5922ZM73.0375 67.5797C71.8734 67.8109 70.8313 68.6141 70.3422 69.7016C69.8063 70.8359 69.9125 72.2375 70.6078 73.2828C71.3703 74.475 72.8375 75.1781 74.2453 74.975C75.6297 74.8094 76.8609 73.7953 77.3063 72.4766C77.7719 71.1828 77.4297 69.6547 76.4703 68.6734C75.6016 67.7703 74.2719 67.3266 73.0375 67.5797Z" fill="#B11F77"/>
        <path d="M25.0064 36.094C25.0423 34.1518 26.8064 32.4658 28.7454 32.4955C33.7454 32.4861 38.747 32.4861 43.747 32.494C45.2673 32.4815 46.7126 33.4924 47.247 34.9096C47.5876 35.7299 47.4907 36.6346 47.5017 37.5002C48.8579 37.5143 50.2157 37.4752 51.5704 37.5174C53.4517 37.633 55.0376 39.3643 55.0032 41.2471C55.0032 46.2518 55.0126 51.258 54.9985 56.2627C55.0298 56.9971 54.297 57.6096 53.5814 57.494C53.2267 57.4611 52.947 57.2205 52.7079 56.9799C51.2267 55.483 49.736 53.9955 48.2517 52.5018C44.2532 52.4955 40.2548 52.5049 36.2548 52.4971C34.7689 52.5127 33.3454 51.544 32.7876 50.1721C32.4095 49.333 32.5079 48.394 32.4985 47.5002C32.247 47.5002 31.997 47.5002 31.747 47.5018C30.2064 49.0471 28.672 50.6002 27.1235 52.1377C26.6907 52.5971 25.9157 52.619 25.4439 52.2096C25.1048 51.9486 24.9751 51.5096 24.997 51.0955C25.0032 46.0955 24.9845 41.094 25.0064 36.094ZM27.5032 36.2408C27.4892 40.2346 27.4985 44.2283 27.5001 48.2221C28.461 47.2752 29.4001 46.3049 30.3642 45.3611C30.6345 45.0783 31.0298 44.9815 31.411 44.9986C35.472 45.0002 39.5329 45.0002 43.5939 45.0002C44.3064 45.0815 45.0204 44.5065 44.9938 43.7705C45.0095 41.2611 45.0064 38.7502 44.9954 36.2408C45.022 35.5736 44.4282 34.9736 43.7595 35.0049C38.7548 34.9971 33.7485 34.9971 28.7439 35.0049C28.0735 34.9721 27.4751 35.5721 27.5032 36.2408ZM47.5032 40.0002C47.4938 41.3033 47.5189 42.6065 47.4923 43.9096C47.447 45.7877 45.7923 47.4471 43.9126 47.4893C40.9423 47.5158 37.972 47.4924 35.0017 47.5002C35.0079 48.0174 34.9626 48.5408 35.0407 49.0549C35.161 49.669 35.797 50.0533 36.4001 50.0002C40.4626 50.0002 44.5267 50.0002 48.5907 49.9986C48.9689 49.9815 49.3642 50.0783 49.636 50.358C50.6032 51.3002 51.5407 52.2752 52.5032 53.2221C52.5032 49.2283 52.5126 45.2315 52.4985 41.2377C52.5282 40.569 51.9298 39.9736 51.2626 40.0049C50.0095 39.9908 48.7563 40.0049 47.5032 40.0002Z" fill="#B11F77"/>
        <path d="M30.828 38.8205C31.4546 38.5768 32.2218 38.9439 32.4265 39.583C32.6812 40.2439 32.2437 41.0471 31.5577 41.2018C30.9187 41.383 30.1983 40.9564 30.0437 40.3127C29.8687 39.7096 30.2312 39.0174 30.828 38.8205Z" fill="#B11F77"/>
        <path d="M35.8326 38.8186C36.4607 38.5779 37.2263 38.9482 37.4295 39.5889C37.6779 40.2482 37.2435 41.0436 36.5607 41.2014C35.9216 41.3842 35.1998 40.9576 35.0435 40.3139C34.8685 39.7076 35.2326 39.0139 35.8326 38.8186Z" fill="#B11F77"/>
        <path d="M40.8438 38.8142C41.4688 38.5814 42.2266 38.9517 42.4282 39.5861C42.6798 40.2455 42.2454 41.0423 41.5626 41.2001C40.9251 41.3845 40.2016 40.9611 40.0454 40.3173C39.8657 39.7064 40.2376 39.0064 40.8438 38.8142Z" fill="#B11F77"/>
    </g>
    <defs>
        <clipPath id="clip0_206_313">
            <rect width="80" height="80" fill="white"/>
        </clipPath>
    </defs>
</svg>
