<svg width="24" height="24" viewBox="0 0 24 24" fill="none" xmlns="http://www.w3.org/2000/svg">
<path d="M20.0691 0.853608C20.3143 0.775327 20.5566 0.674546 20.8154 0.649702C21.2771 0.59814 21.7571 0.742046 22.1138 1.04017C22.4499 1.31626 22.6759 1.72314 22.7321 2.15486C22.7565 2.34189 22.749 2.5308 22.7499 2.7183C22.7499 6.84376 22.7499 10.9692 22.7499 15.0947C22.7434 15.4224 22.778 15.7575 22.6857 16.0767C22.5484 16.5872 22.1654 17.025 21.6755 17.2252C21.3029 17.3803 20.8759 17.4052 20.4896 17.2847C17.7418 16.3767 15.0001 15.4486 12.2504 14.5453C12.2424 10.8488 12.2443 7.1522 12.2495 3.45564C14.8585 2.59689 17.462 1.71939 20.0691 0.853608Z" fill="white"/>
<path d="M2.43004 4.86762C3.29488 3.87387 4.58816 3.26824 5.90629 3.25183C7.68754 3.24762 9.46832 3.25137 11.2491 3.24996C11.2505 7.0834 11.2505 10.9168 11.2491 14.7503C9.48238 14.7489 7.71519 14.7517 5.94801 14.7489C4.89332 14.7418 3.84754 14.3654 3.02723 13.7036C1.9491 12.8462 1.27738 11.5023 1.25254 10.1242C1.24738 9.40605 1.25066 8.68793 1.25066 7.96933C1.25254 6.83777 1.68004 5.71465 2.43004 4.86762Z" fill="white"/>
<path d="M5.66113 15.7317C5.75816 15.7401 5.85566 15.7486 5.95363 15.75C8.03957 15.7509 10.125 15.7481 12.211 15.7514C12.4632 16.7704 12.7191 17.789 12.9713 18.8081C13.1363 19.4634 13.0847 20.1708 12.8255 20.7947C12.5818 21.39 12.1496 21.9047 11.6068 22.2487C10.9379 22.6809 10.1025 22.8426 9.3202 22.6964C8.13801 22.492 7.1241 21.5583 6.82551 20.3953C6.4341 18.8418 6.04879 17.2865 5.66113 15.7317Z" fill="white"/>
</svg>
