<svg width="80" height="80" viewBox="0 0 80 80" fill="none" xmlns="http://www.w3.org/2000/svg">
<path d="M47.7502 1.65468C48.8173 1.0828 50.1736 1.13436 51.2017 1.76874C52.2689 2.38905 52.9392 3.60311 52.9189 4.83593C52.9267 7.70624 52.9173 10.5781 52.9236 13.4484C54.3705 13.7297 55.7033 14.564 56.5533 15.7734C57.6595 17.2969 57.9205 19.3812 57.2345 21.1344C56.5439 22.9734 54.8517 24.364 52.9236 24.725C52.9189 27.3187 52.9205 29.9125 52.9236 32.5062C52.9377 33.1672 52.8611 33.8453 52.558 34.4422C51.8939 35.8328 50.2455 36.6703 48.7298 36.364C47.8064 36.2062 47.0673 35.589 46.2814 35.125C41.4892 32.1265 36.4502 29.3 30.8752 28.0797C30.8689 32.164 30.8798 36.2484 30.8689 40.3328C30.908 40.9922 30.3502 41.625 29.6814 41.6265C28.5267 41.6437 27.3236 41.7203 26.2298 41.275C24.2439 40.5312 22.8002 38.5344 22.7611 36.4062C22.7439 33.5437 22.7548 30.6797 22.7564 27.8172C21.833 27.8125 20.8986 27.839 19.9892 27.6453C17.2955 27.1437 14.9048 25.2953 13.7236 22.825C12.5314 20.4062 12.5548 17.4375 13.7814 15.0359C15.1658 12.2281 18.1377 10.2812 21.2736 10.1812C23.4533 10.1484 25.6345 10.1765 27.8158 10.1656C28.6017 10.15 29.4064 10.2453 30.1705 10.0109C36.5377 8.43905 42.0939 4.81874 47.7502 1.65468ZM49.0033 3.83436C48.2314 4.20936 47.5205 4.6953 46.7533 5.07967C46.7173 14.2078 46.7455 23.3359 46.7392 32.4625C47.4861 32.9109 48.2002 33.414 48.9642 33.8312C49.6298 34.1719 50.4939 33.5547 50.4189 32.8187C50.4236 23.4937 50.4252 14.1687 50.4173 4.84374C50.4798 4.12811 49.6595 3.52968 49.0033 3.83436ZM30.8611 12.4344C30.8892 16.7969 30.8658 21.1609 30.8736 25.5234C35.6236 26.4812 40.0658 28.5437 44.2361 30.9609C44.2377 22.8234 44.2377 14.6844 44.2361 6.54686C39.9955 8.95468 35.6095 11.2156 30.8611 12.4344ZM17.3439 14.3781C16.0611 15.5672 15.3111 17.3094 15.3439 19.0594C15.3517 20.7969 16.1283 22.5109 17.422 23.6687C18.5783 24.7312 20.1439 25.3219 21.7127 25.3109C23.9345 25.3109 26.1548 25.3187 28.3767 25.3062C28.3705 21.0953 28.3705 16.8844 28.3767 12.6719C26.1564 12.6594 23.9361 12.6687 21.7158 12.6672C20.1111 12.65 18.5095 13.2719 17.3439 14.3781ZM52.9267 16.0265C52.9189 18.0656 52.9205 20.1062 52.9252 22.1469C54.1986 21.7 55.1439 20.4312 55.1095 19.0672C55.1283 17.7156 54.1845 16.4734 52.9267 16.0265ZM25.2533 27.8125C25.2595 30.6734 25.2392 33.5328 25.2642 36.3922C25.3064 37.9734 26.808 39.2469 28.3673 39.1547C28.383 35.3765 28.3642 31.5984 28.3767 27.8203C27.3361 27.8047 26.2955 27.8156 25.2533 27.8125Z" fill="white"/>
<path d="M61.7783 7.40311C62.4283 7.04061 63.3283 7.41874 63.5361 8.12968C63.7127 8.63436 63.4955 9.18124 63.1111 9.52343C62.2142 10.3953 61.3611 11.3141 60.4392 12.1594C59.7142 12.7672 58.4845 12.1937 58.4564 11.2562C58.3767 10.4781 59.1142 10.0297 59.5705 9.52499C60.3173 8.83124 60.9658 8.0203 61.7783 7.40311Z" fill="white"/>
<path d="M62.0548 17.8484C63.297 17.8125 64.5407 17.839 65.7845 17.8359C66.2657 17.8094 66.7657 18.039 66.997 18.475C67.3313 19.0328 67.1235 19.8281 66.5595 20.1515C66.2407 20.364 65.8407 20.3297 65.4766 20.3375C64.3798 20.325 63.2829 20.3437 62.186 20.3297C61.5626 20.3578 60.9845 19.8484 60.9282 19.2297C60.8313 18.5594 61.3751 17.8828 62.0548 17.8484Z" fill="white"/>
<path d="M58.9516 25.6875C59.4376 25.5078 59.986 25.6984 60.3235 26.0734C61.1829 26.9422 62.0579 27.7922 62.9079 28.6687C63.4219 29.1781 63.3282 30.1203 62.7297 30.525C62.2329 30.9078 61.4766 30.8125 61.0641 30.35C60.1813 29.4594 59.2797 28.5859 58.4126 27.6828C57.8172 27.0672 58.136 25.9266 58.9516 25.6875Z" fill="white"/>
<path d="M39.1579 41.7422C39.2423 41.0672 39.9657 40.5719 40.6266 40.7234C41.1688 40.8219 41.6126 41.3219 41.6235 41.8765C41.6548 42.6422 41.6235 43.4094 41.6344 44.1765C49.4219 44.1797 57.2094 44.175 64.9969 44.1781C65.6626 44.1156 66.3313 44.6328 66.3641 45.314C66.3923 46.514 66.3797 47.7172 66.3704 48.9172C66.3829 49.5125 65.9079 50.0609 65.3204 50.1406C64.6563 50.264 63.9532 49.7469 63.8985 49.0687C63.8469 48.2734 63.8923 47.475 63.8782 46.6781C56.4673 46.6703 49.0579 46.6875 41.6485 46.6703C41.6063 47.4672 41.6688 48.2672 41.6157 49.064C41.5626 49.7 40.9407 50.2062 40.3079 50.1547C39.7204 50.1297 39.1907 49.6328 39.1501 49.0406C39.1094 48.2547 39.1485 47.4656 39.1329 46.6781C31.7188 46.6765 24.3047 46.6765 16.8907 46.6781C16.8907 47.0265 16.8922 47.3765 16.8969 47.7281C19.5485 47.9859 22.1048 49.1234 24.061 50.9328C25.4094 52.15 26.4313 53.6906 27.1563 55.35C27.8594 55.5515 28.6048 55.7781 29.1141 56.35C29.7423 56.975 30.061 57.8672 30.0329 58.7469C30.0079 59.639 30.0954 60.5406 29.9657 61.4281C29.7266 62.7078 28.6266 63.764 27.3391 63.9531C25.4016 64.3344 23.4735 62.5765 23.6329 60.6187C23.6423 59.8453 23.6126 59.0703 23.6516 58.2984C23.7063 57.4594 24.1579 56.7 24.7626 56.1359C23.8485 54.0406 22.2047 52.2687 20.1594 51.239C17.6469 49.9547 14.586 49.814 11.9657 50.8609C9.54537 51.8062 7.55944 53.7484 6.52037 56.1265C7.1485 56.7281 7.61569 57.5359 7.63756 58.4219C7.65162 59.3172 7.66569 60.2125 7.62819 61.1062C7.511 62.7781 5.89381 64.1437 4.22662 63.9859C2.59381 63.9094 1.20319 62.4125 1.25162 60.7781C1.32037 59.5484 1.01725 58.2156 1.62819 57.0812C2.11412 56.1422 3.08912 55.5312 4.1235 55.3875C5.15006 52.875 7.01256 50.7062 9.36881 49.3515C10.9016 48.4531 12.6297 47.914 14.3922 47.7156C14.4016 46.9125 14.3672 46.1078 14.4047 45.3047C14.4407 44.6875 15.0126 44.1719 15.6282 44.1844C23.4641 44.1609 31.3032 44.1953 39.1407 44.1672C39.1469 43.3594 39.1016 42.5484 39.1579 41.7422ZM4.09537 57.989C3.65319 58.2344 3.761 58.7969 3.74694 59.2172C3.77975 59.8297 3.68444 60.4562 3.80475 61.0609C4.02037 61.689 5.03912 61.5906 5.12662 60.9328C5.17037 60.15 5.1485 59.364 5.14069 58.5812C5.16412 58.0687 4.5235 57.7 4.09537 57.989ZM26.4516 58.0062C26.2579 58.1312 26.136 58.3547 26.1407 58.5875C26.1266 59.3219 26.1266 60.0594 26.1407 60.7937C26.1235 61.1844 26.4907 61.5281 26.8782 61.4953C27.2376 61.4734 27.5423 61.1437 27.5251 60.7844C27.5391 60.0562 27.5391 59.3265 27.5251 58.5984C27.5641 58.064 26.8844 57.6828 26.4516 58.0062Z" fill="white"/>
<path d="M10.9314 54.2234C12.6204 52.85 14.9235 52.2797 17.0595 52.7015C19.5579 53.1547 21.7392 54.9812 22.6548 57.3453C23.8001 60.1437 23.0235 63.5875 20.7673 65.6062C20.6548 65.714 20.272 66.0031 20.6204 66.0797C23.8423 67.314 26.5376 69.8297 28.0126 72.9469C29.5251 69.7422 32.3314 67.1937 35.6579 65.9765C34.1314 64.7187 33.0829 62.8734 32.8845 60.8969C32.6704 58.8781 33.3064 56.7828 34.6298 55.2406C36.0845 53.5015 38.3548 52.4797 40.6235 52.5703C42.8532 52.6219 45.0157 53.7453 46.3626 55.5187C47.8642 57.4406 48.3235 60.1172 47.5548 62.4328C47.1157 63.8265 46.2126 65.0219 45.1298 65.9859C48.4532 67.1984 51.2423 69.7547 52.7595 72.9469C54.2642 69.7375 57.0798 67.1953 60.4032 65.9734C58.6376 64.5344 57.5267 62.289 57.5923 59.9969C57.6079 57.7265 58.7282 55.5 60.5392 54.1297C62.136 52.8812 64.2548 52.339 66.2579 52.6515C68.1892 52.9312 69.9814 54.014 71.1501 55.575C72.4626 57.2984 72.9642 59.6078 72.4907 61.7219C72.136 63.3922 71.1579 64.8922 69.8532 65.9797C74.6939 67.7047 78.3329 72.3656 78.7407 77.5C78.772 78.2344 78.0564 78.825 77.3439 78.75C52.7064 78.75 28.0673 78.75 3.42979 78.75C2.65479 78.8406 1.90479 78.1312 2.03448 77.3437C2.31729 74.6219 3.45166 71.9969 5.2376 69.9234C6.75166 68.1469 8.73604 66.7906 10.9204 65.9765C9.15166 64.5406 8.04385 62.2953 8.10479 60.0062C8.11885 57.7828 9.1876 55.6015 10.9314 54.2234ZM39.9095 55.0859C39.0939 55.1625 38.2985 55.4406 37.6157 55.8937C35.647 57.1406 34.797 59.8312 35.7079 61.9781C36.572 64.2437 39.2142 65.6203 41.5642 64.9984C44.0814 64.4531 45.8548 61.7531 45.3439 59.225C44.9564 56.7125 42.4392 54.7875 39.9095 55.0859ZM14.286 55.2469C13.4392 55.4844 12.6579 55.9469 12.0439 56.5765C10.386 58.2031 10.1282 61.0078 11.4595 62.9094C12.7064 64.8297 15.336 65.6672 17.4579 64.8C19.872 63.9234 21.2814 61.0297 20.4454 58.5922C19.7157 56.0656 16.8079 54.475 14.286 55.2469ZM63.9423 55.2031C63.0048 55.4297 62.1376 55.9328 61.4767 56.6344C59.8548 58.2734 59.6314 61.0562 60.9657 62.9359C62.2454 64.8859 64.9564 65.6937 67.0892 64.7422C69.3704 63.825 70.6985 61.1015 69.9798 58.7437C69.3282 56.2015 66.4845 54.5203 63.9423 55.2031ZM8.32666 70.3578C6.54854 71.8781 5.2876 73.9765 4.74698 76.25C12.0095 76.2469 19.2735 76.2547 26.536 76.2469C26.0314 74.1828 24.961 72.2562 23.4235 70.7844C21.4767 68.8859 18.8126 67.7531 16.0954 67.6594C13.2876 67.5312 10.4485 68.514 8.32666 70.3578ZM32.8845 70.5234C31.2001 72.0234 30.0142 74.0562 29.4907 76.2484C36.7532 76.2515 44.0157 76.25 51.2767 76.2484C50.7376 73.9922 49.4954 71.9078 47.736 70.3906C45.6298 68.5375 42.8001 67.5469 39.997 67.6562C37.3876 67.7328 34.8189 68.7687 32.8845 70.5234ZM57.7517 70.4109C56.0032 71.925 54.772 74.0031 54.2329 76.2484C61.4954 76.2515 68.7595 76.25 76.022 76.25C75.5189 74.164 74.4267 72.2203 72.8657 70.7422C70.936 68.8797 68.3095 67.7656 65.6282 67.6609C62.7782 67.5187 59.8939 68.5265 57.7517 70.4109Z" fill="white"/>
</svg>
