<svg width="80" height="80" viewBox="0 0 80 80" fill="none" xmlns="http://www.w3.org/2000/svg">
    <path d="M47.7497 1.65477C48.8169 1.08289 50.1731 1.13445 51.2012 1.76883C52.2684 2.38914 52.9387 3.6032 52.9184 4.83602C52.9262 7.70633 52.9169 10.5782 52.9231 13.4485C54.37 13.7298 55.7028 14.5641 56.5528 15.7735C57.659 17.297 57.92 19.3813 57.234 21.1345C56.5434 22.9735 54.8512 24.3641 52.9231 24.7251C52.9184 27.3188 52.92 29.9126 52.9231 32.5063C52.9372 33.1673 52.8606 33.8454 52.5575 34.4423C51.8934 35.8329 50.245 36.6704 48.7294 36.3641C47.8059 36.2063 47.0669 35.5891 46.2809 35.1251C41.4887 32.1266 36.4497 29.3001 30.8747 28.0798C30.8684 32.1641 30.8794 36.2485 30.8684 40.3329C30.9075 40.9923 30.3497 41.6251 29.6809 41.6266C28.5262 41.6438 27.3231 41.7204 26.2294 41.2751C24.2434 40.5313 22.7997 38.5345 22.7606 36.4063C22.7434 33.5438 22.7544 30.6798 22.7559 27.8173C21.8325 27.8126 20.8981 27.8391 19.9887 27.6454C17.295 27.1438 14.9044 25.2954 13.7231 22.8251C12.5309 20.4063 12.5544 17.4376 13.7809 15.036C15.1653 12.2282 18.1372 10.2813 21.2731 10.1813C23.4528 10.1485 25.634 10.1766 27.8153 10.1657C28.6012 10.1501 29.4059 10.2454 30.17 10.011C36.5372 8.43914 42.0934 4.81883 47.7497 1.65477ZM49.0028 3.83445C48.2309 4.20945 47.52 4.69539 46.7528 5.07977C46.7169 14.2079 46.745 23.336 46.7387 32.4626C47.4856 32.911 48.1997 33.4141 48.9637 33.8313C49.6294 34.172 50.4934 33.5548 50.4184 32.8188C50.4231 23.4938 50.4247 14.1688 50.4169 4.84383C50.4794 4.1282 49.659 3.52977 49.0028 3.83445ZM30.8606 12.4345C30.8887 16.797 30.8653 21.161 30.8731 25.5235C35.6231 26.4813 40.0653 28.5438 44.2356 30.961C44.2372 22.8235 44.2372 14.6845 44.2356 6.54695C39.995 8.95477 35.609 11.2157 30.8606 12.4345ZM17.3434 14.3782C16.0606 15.5673 15.3106 17.3095 15.3434 19.0595C15.3512 20.797 16.1278 22.511 17.4215 23.6688C18.5778 24.7313 20.1434 25.322 21.7122 25.311C23.934 25.311 26.1544 25.3188 28.3762 25.3063C28.37 21.0954 28.37 16.8845 28.3762 12.672C26.1559 12.6595 23.9356 12.6688 21.7153 12.6673C20.1106 12.6501 18.509 13.272 17.3434 14.3782ZM52.9262 16.0266C52.9184 18.0657 52.92 20.1063 52.9247 22.147C54.1981 21.7001 55.1434 20.4313 55.109 19.0673C55.1278 17.7157 54.184 16.4735 52.9262 16.0266ZM25.2528 27.8126C25.259 30.6735 25.2387 33.5329 25.2637 36.3923C25.3059 37.9735 26.8075 39.2469 28.3669 39.1548C28.3825 35.3766 28.3637 31.5985 28.3762 27.8204C27.3356 27.8048 26.295 27.8157 25.2528 27.8126Z" fill="#B11F77"/>
    <path d="M61.778 7.40342C62.428 7.04092 63.328 7.41904 63.5358 8.12998C63.7124 8.63467 63.4952 9.18154 63.1108 9.52373C62.214 10.3956 61.3608 11.3144 60.439 12.1597C59.714 12.7675 58.4843 12.194 58.4562 11.2565C58.3765 10.4784 59.114 10.03 59.5702 9.52529C60.3171 8.83154 60.9655 8.02061 61.778 7.40342Z" fill="#B11F77"/>
    <path d="M62.0543 17.8486C63.2965 17.8127 64.5402 17.8393 65.784 17.8361C66.2652 17.8096 66.7652 18.0393 66.9965 18.4752C67.3308 19.033 67.123 19.8283 66.559 20.1518C66.2402 20.3643 65.8402 20.3299 65.4762 20.3377C64.3793 20.3252 63.2824 20.3439 62.1855 20.3299C61.5621 20.358 60.984 19.8486 60.9277 19.2299C60.8308 18.5596 61.3746 17.883 62.0543 17.8486Z" fill="#B11F77"/>
    <path d="M58.9516 25.6875C59.4376 25.5078 59.986 25.6984 60.3235 26.0734C61.1829 26.9422 62.0579 27.7922 62.9079 28.6687C63.4219 29.1781 63.3282 30.1203 62.7297 30.525C62.2329 30.9078 61.4766 30.8125 61.0641 30.35C60.1813 29.4593 59.2797 28.5859 58.4126 27.6828C57.8172 27.0672 58.136 25.9265 58.9516 25.6875Z" fill="#B11F77"/>
    <path d="M39.1576 41.7425C39.242 41.0675 39.9654 40.5722 40.6264 40.7237C41.1686 40.8222 41.6123 41.3222 41.6233 41.8769C41.6545 42.6425 41.6233 43.4097 41.6342 44.1769C49.4217 44.18 57.2092 44.1753 64.9967 44.1784C65.6623 44.1159 66.3311 44.6331 66.3639 45.3144C66.392 46.5144 66.3795 47.7175 66.3701 48.9175C66.3826 49.5128 65.9076 50.0612 65.3201 50.1409C64.6561 50.2643 63.9529 49.7472 63.8983 49.069C63.8467 48.2737 63.892 47.4753 63.8779 46.6784C56.467 46.6706 49.0576 46.6878 41.6483 46.6706C41.6061 47.4675 41.6686 48.2675 41.6154 49.0644C41.5623 49.7003 40.9404 50.2065 40.3076 50.155C39.7201 50.13 39.1904 49.6331 39.1498 49.0409C39.1092 48.255 39.1483 47.4659 39.1326 46.6784C31.7186 46.6768 24.3045 46.6768 16.8904 46.6784C16.8904 47.0268 16.892 47.3768 16.8967 47.7284C19.5483 47.9862 22.1045 49.1237 24.0608 50.9331C25.4092 52.1503 26.4311 53.6909 27.1561 55.3503C27.8592 55.5518 28.6045 55.7784 29.1139 56.3503C29.742 56.9753 30.0608 57.8675 30.0326 58.7472C30.0076 59.6394 30.0951 60.5409 29.9654 61.4284C29.7264 62.7081 28.6264 63.7643 27.3389 63.9534C25.4014 64.3347 23.4733 62.5768 23.6326 60.619C23.642 59.8456 23.6123 59.0706 23.6514 58.2987C23.7061 57.4597 24.1576 56.7003 24.7623 56.1362C23.8483 54.0409 22.2045 52.269 20.1592 51.2393C17.6467 49.955 14.5858 49.8144 11.9654 50.8612C9.54513 51.8065 7.55919 53.7487 6.52013 56.1268C7.14825 56.7284 7.61544 57.5362 7.63732 58.4222C7.65138 59.3175 7.66544 60.2128 7.62794 61.1065C7.51076 62.7784 5.89357 64.144 4.22638 63.9862C2.59357 63.9097 1.20294 62.4128 1.25138 60.7784C1.32013 59.5487 1.01701 58.2159 1.62794 57.0815C2.11388 56.1425 3.08888 55.5315 4.12326 55.3878C5.14982 52.8753 7.01232 50.7065 9.36857 49.3519C10.9014 48.4534 12.6295 47.9144 14.392 47.7159C14.4014 46.9128 14.367 46.1081 14.4045 45.305C14.4404 44.6878 15.0123 44.1722 15.6279 44.1847C23.4639 44.1612 31.3029 44.1956 39.1404 44.1675C39.1467 43.3597 39.1014 42.5487 39.1576 41.7425ZM4.09513 57.9893C3.65294 58.2347 3.76076 58.7972 3.74669 59.2175C3.77951 59.83 3.68419 60.4565 3.80451 61.0612C4.02013 61.6894 5.03888 61.5909 5.12638 60.9331C5.17013 60.1503 5.14826 59.3644 5.14044 58.5815C5.16388 58.069 4.52326 57.7003 4.09513 57.9893ZM26.4514 58.0065C26.2576 58.1315 26.1358 58.355 26.1404 58.5878C26.1264 59.3222 26.1264 60.0597 26.1404 60.794C26.1233 61.1847 26.4904 61.5284 26.8779 61.4956C27.2373 61.4737 27.542 61.144 27.5248 60.7847C27.5389 60.0565 27.5389 59.3268 27.5248 58.5987C27.5639 58.0643 26.8842 57.6831 26.4514 58.0065Z" fill="#B11F77"/>
    <path d="M10.9311 54.2236C12.6202 52.8502 14.9233 52.2799 17.0592 52.7018C19.5577 53.1549 21.7389 54.9814 22.6545 57.3455C23.7999 60.1439 23.0233 63.5877 20.767 65.6064C20.6545 65.7143 20.2717 66.0033 20.6202 66.0799C23.842 67.3143 26.5374 69.8299 28.0124 72.9471C29.5249 69.7424 32.3311 67.1939 35.6577 65.9768C34.1311 64.7189 33.0827 62.8736 32.8842 60.8971C32.6702 58.8783 33.3061 56.783 34.6295 55.2408C36.0842 53.5018 38.3545 52.4799 40.6233 52.5705C42.853 52.6221 45.0155 53.7455 46.3624 55.5189C47.8639 57.4408 48.3233 60.1174 47.5545 62.433C47.1155 63.8268 46.2124 65.0221 45.1295 65.9861C48.453 67.1986 51.242 69.7549 52.7592 72.9471C54.2639 69.7377 57.0795 67.1955 60.403 65.9736C58.6374 64.5346 57.5264 62.2893 57.592 59.9971C57.6077 57.7268 58.728 55.5002 60.5389 54.1299C62.1358 52.8814 64.2545 52.3393 66.2577 52.6518C68.1889 52.9314 69.9811 54.0143 71.1499 55.5752C72.4624 57.2986 72.9639 59.608 72.4905 61.7221C72.1358 63.3924 71.1577 64.8924 69.853 65.9799C74.6936 67.7049 78.3327 72.3658 78.7405 77.5002C78.7717 78.2346 78.0561 78.8252 77.3436 78.7502C52.7061 78.7502 28.067 78.7502 3.42955 78.7502C2.65455 78.8408 1.90455 78.1314 2.03423 77.3439C2.31705 74.6221 3.45142 71.9971 5.23736 69.9236C6.75142 68.1471 8.7358 66.7908 10.9202 65.9768C9.15142 64.5408 8.04361 62.2955 8.10455 60.0064C8.11861 57.783 9.18736 55.6018 10.9311 54.2236ZM39.9092 55.0861C39.0936 55.1627 38.2983 55.4408 37.6155 55.8939C35.6467 57.1408 34.7967 59.8314 35.7077 61.9783C36.5717 64.2439 39.2139 65.6205 41.5639 64.9986C44.0811 64.4533 45.8545 61.7533 45.3436 59.2252C44.9561 56.7127 42.4389 54.7877 39.9092 55.0861ZM14.2858 55.2471C13.4389 55.4846 12.6577 55.9471 12.0436 56.5768C10.3858 58.2033 10.128 61.008 11.4592 62.9096C12.7061 64.8299 15.3358 65.6674 17.4577 64.8002C19.8717 63.9236 21.2811 61.0299 20.4452 58.5924C19.7155 56.0658 16.8077 54.4752 14.2858 55.2471ZM63.942 55.2033C63.0045 55.4299 62.1374 55.933 61.4764 56.6346C59.8545 58.2736 59.6311 61.0564 60.9655 62.9361C62.2452 64.8861 64.9561 65.6939 67.0889 64.7424C69.3702 63.8252 70.6983 61.1018 69.9795 58.7439C69.328 56.2018 66.4842 54.5205 63.942 55.2033ZM8.32642 70.358C6.5483 71.8783 5.28736 73.9768 4.74673 76.2502C12.0092 76.2471 19.2733 76.2549 26.5358 76.2471C26.0311 74.183 24.9608 72.2564 23.4233 70.7846C21.4764 68.8861 18.8124 67.7533 16.0952 67.6596C13.2874 67.5314 10.4483 68.5143 8.32642 70.358ZM32.8842 70.5236C31.1999 72.0236 30.0139 74.0564 29.4905 76.2486C36.753 76.2518 44.0155 76.2502 51.2764 76.2486C50.7374 73.9924 49.4952 71.908 47.7358 70.3908C45.6295 68.5377 42.7999 67.5471 39.9967 67.6564C37.3874 67.733 34.8186 68.7689 32.8842 70.5236ZM57.7514 70.4111C56.003 71.9252 54.7717 74.0033 54.2327 76.2486C61.4952 76.2518 68.7592 76.2502 76.0217 76.2502C75.5186 74.1643 74.4264 72.2205 72.8655 70.7424C70.9358 68.8799 68.3092 67.7658 65.628 67.6611C62.778 67.5189 59.8936 68.5268 57.7514 70.4111Z" fill="#B11F77"/>
</svg>
