<svg width="20" height="20" viewBox="0 0 20 20" fill="none" xmlns="http://www.w3.org/2000/svg">
<g clip-path="url(#clip0_21_102451)">
<path d="M0.760547 1.54214C1.21953 1.09292 1.85508 0.828857 2.49844 0.833545C7.5 0.833154 12.5016 0.833154 17.5031 0.833545C18.2383 0.828076 18.9613 1.17534 19.4258 1.74331C19.7742 2.15737 19.9727 2.68823 20 3.22729V16.7902C19.9664 17.3511 19.7477 17.9007 19.3711 18.3199C18.907 18.8523 18.2086 19.1699 17.5016 19.1664C12.7227 19.1671 7.94336 19.1664 3.16445 19.1667C2.68867 19.1601 2.19844 19.2066 1.74023 19.048C0.763672 18.7457 0.034375 17.7968 0 16.7738V3.20542C0.0347656 2.5812 0.308984 1.97495 0.760547 1.54214ZM1.6668 5.00034C1.6668 8.89292 1.66602 12.7859 1.66758 16.6785C1.66172 17.1199 2.06055 17.5105 2.50117 17.4996C7.50039 17.5003 12.5 17.5003 17.4996 17.4996C17.9395 17.5097 18.3367 17.1199 18.3324 16.6792C18.3344 12.7863 18.3332 8.89331 18.3332 5.00034C12.7777 4.99956 7.22227 4.99956 1.6668 5.00034Z" fill="#434C5D"/>
<path d="M3.33553 8.28324C3.34999 7.86684 3.72186 7.50473 4.13866 7.50121C6.09295 7.49848 8.04725 7.50043 10.0015 7.50043C10.4285 7.49106 10.8168 7.85785 10.8308 8.28481C10.8367 8.71254 10.832 9.14067 10.8332 9.5684C10.841 9.88403 10.6527 10.195 10.3672 10.3305C10.114 10.4579 9.79491 10.4426 9.55702 10.2875C9.33514 10.1512 9.18592 9.90434 9.16991 9.64457C9.1621 9.4852 9.16952 9.32582 9.166 9.16645C8.7496 9.16723 8.33319 9.16606 7.91717 9.16723C7.916 10.8332 7.91717 12.4997 7.91639 14.1657C8.17225 14.1782 8.44452 14.1274 8.68358 14.2442C9.00585 14.3883 9.20897 14.7536 9.15975 15.1036C9.11717 15.5 8.75585 15.8293 8.35663 15.8321C7.52381 15.8352 6.691 15.8325 5.85858 15.8332C5.60116 15.8407 5.34413 15.7235 5.18397 15.5215C4.9996 15.2973 4.94959 14.9739 5.05467 14.7039C5.16561 14.4032 5.46366 14.1821 5.78475 14.1688C5.93944 14.1633 6.09452 14.1684 6.2496 14.1668C6.25038 12.5 6.24999 10.8336 6.2496 9.16684C5.83319 9.16645 5.41678 9.16645 5.00038 9.16684C4.98905 9.41293 5.03553 9.67192 4.93475 9.90473C4.80389 10.2289 4.45311 10.4457 4.10389 10.4137C3.69217 10.3911 3.33631 10.0219 3.33436 9.60824C3.33319 9.16684 3.33124 8.72465 3.33553 8.28324Z" fill="#434C5D"/>
<path d="M13.1411 7.52256C13.2246 7.50186 13.3118 7.49951 13.3977 7.49951C14.2059 7.50029 15.0141 7.49951 15.8223 7.4999C16.1133 7.49404 16.3996 7.65381 16.5473 7.90459C16.7067 8.16357 16.7051 8.51084 16.543 8.76826C16.3946 9.01592 16.1102 9.17178 15.8219 9.16631C14.9883 9.16631 14.1543 9.16748 13.3207 9.16592C13.0336 9.16436 12.7559 8.99951 12.6129 8.75186C12.4844 8.5335 12.4645 8.25576 12.561 8.02139C12.6586 7.77451 12.8821 7.58193 13.1411 7.52256Z" fill="#434C5D"/>
<path d="M13.2559 10.8375C14.111 10.8281 14.9664 10.836 15.8219 10.8336C16.1016 10.8281 16.3781 10.9735 16.5293 11.2094C16.6981 11.4606 16.7114 11.8055 16.5621 12.0688C16.4192 12.3344 16.1227 12.5059 15.8211 12.5C14.9879 12.4996 14.1547 12.5012 13.3215 12.4992C13.0219 12.4985 12.7336 12.3199 12.5961 12.0547C12.4723 11.8231 12.4684 11.532 12.5864 11.2973C12.7106 11.0426 12.9727 10.8606 13.2559 10.8375Z" fill="#434C5D"/>
<path d="M13.1023 14.1992C13.2367 14.1582 13.3785 14.1672 13.5172 14.1664C14.259 14.1664 15.0012 14.1672 15.7433 14.1664C15.8937 14.1621 16.0488 14.1781 16.1855 14.2453C16.473 14.3762 16.6699 14.6824 16.666 14.9988C16.6707 15.3262 16.4609 15.6414 16.159 15.766C16.0164 15.8309 15.857 15.8371 15.7031 15.8336C14.9097 15.8324 14.116 15.8348 13.3222 15.8324C12.8965 15.8371 12.5121 15.4672 12.5015 15.0414C12.4754 14.6656 12.7394 14.2977 13.1023 14.1992Z" fill="#434C5D"/>
</g>
<defs>
<clipPath id="clip0_21_102451">
<rect width="20" height="20" fill="white"/>
</clipPath>
</defs>
</svg>
