<svg width="24" height="24" viewBox="0 0 24 24" fill="none" xmlns="http://www.w3.org/2000/svg">
    <path d="M7.94693 20.9259C16.194 20.9259 20.704 14.0582 20.704 8.10273C20.704 7.90766 20.7 7.71348 20.6913 7.52017C21.5668 6.88401 22.3277 6.09014 22.9279 5.18642C22.1245 5.54535 21.26 5.78698 20.353 5.89594C21.2787 5.33798 21.9894 4.45536 22.3247 3.40318C21.4584 3.9194 20.4991 4.2946 19.4776 4.49716C18.6594 3.62115 17.4946 3.07324 16.2048 3.07324C13.7288 3.07324 11.7209 5.09158 11.7209 7.57947C11.7209 7.93313 11.7602 8.27714 11.8372 8.60711C8.11074 8.41863 4.80641 6.62525 2.59497 3.89831C2.20991 4.56434 1.98788 5.33801 1.98788 6.16352C1.98788 7.72712 2.77944 9.10747 3.98314 9.915C3.24753 9.89215 2.55651 9.68918 1.95254 9.35133C1.95188 9.37024 1.95187 9.38867 1.95187 9.40888C1.95187 11.5915 3.49738 13.4139 5.54895 13.8268C5.17219 13.93 4.77579 13.9854 4.36667 13.9854C4.0782 13.9854 3.79716 13.9569 3.52399 13.9041C4.0948 15.6948 5.75002 16.9979 7.71242 17.0344C6.17785 18.2434 4.24472 18.9635 2.14372 18.9635C1.78226 18.9635 1.42517 18.9428 1.07422 18.9011C3.05855 20.1796 5.41475 20.9256 7.94717 20.9256" fill="white"/>
</svg>
