<svg width="20" height="20" viewBox="0 0 20 20" fill="none" xmlns="http://www.w3.org/2000/svg">
<rect x="0.75" y="0.75" width="18.5" height="18.5" rx="9.25" stroke="#434C5D" stroke-width="1.5"/>
<path d="M9.74062 13.8951C9.74062 14.1428 9.9415 14.3436 10.1892 14.3436C10.4368 14.3436 10.6377 14.143 10.6377 13.8951V6.13254C10.6377 5.88485 10.4369 5.68398 10.1892 5.68398C9.94149 5.68398 9.74062 5.88486 9.74062 6.13254V13.8951Z" fill="#434C5D" stroke="#434C5D" stroke-width="0.3"/>
<path d="M10.187 6.76891L8.11589 8.84006L10.187 6.76891ZM10.187 6.76891L12.2583 8.84015C12.3458 8.92764 12.461 8.97152 12.5755 8.97153L10.187 6.76891ZM12.8926 8.84016C13.0679 8.66493 13.0679 8.38101 12.8926 8.20578L10.5042 5.81736C10.3291 5.64222 10.0449 5.64204 9.86985 5.81736L12.8926 8.84016ZM12.8926 8.84016C12.805 8.92807 12.6896 8.97152 12.5755 8.97153L12.8926 8.84016Z" fill="#434C5D" stroke="#434C5D" stroke-width="0.3"/>
</svg>
