<svg width="20" height="20" viewBox="0 0 20 20" fill="none" xmlns="http://www.w3.org/2000/svg">
<path d="M13.492 1.66675H6.50866C3.47533 1.66675 1.66699 3.47508 1.66699 6.50841V13.4917C1.66699 15.8334 2.74199 17.4417 4.63366 18.0501C5.18366 18.2417 5.81699 18.3334 6.50866 18.3334H13.492C14.1837 18.3334 14.817 18.2417 15.367 18.0501C17.2587 17.4417 18.3337 15.8334 18.3337 13.4917V6.50841C18.3337 3.47508 16.5253 1.66675 13.492 1.66675ZM17.0837 13.4917C17.0837 15.2751 16.3837 16.4001 14.9753 16.8667C14.167 15.2751 12.2503 14.1417 10.0003 14.1417C7.75033 14.1417 5.84199 15.2667 5.02533 16.8667H5.01699C3.62533 16.4167 2.91699 15.2834 2.91699 13.5001V6.50841C2.91699 4.15841 4.15866 2.91675 6.50866 2.91675H13.492C15.842 2.91675 17.0837 4.15841 17.0837 6.50841V13.4917Z" fill="white"/>
<path d="M9.99993 6.66675C8.34993 6.66675 7.0166 8.00008 7.0166 9.65008C7.0166 11.3001 8.34993 12.6417 9.99993 12.6417C11.6499 12.6417 12.9833 11.3001 12.9833 9.65008C12.9833 8.00008 11.6499 6.66675 9.99993 6.66675Z" fill="white"/>
</svg>
